<?xml version="1.0" encoding="utf-8"?>
<!-- Generator: Adobe Illustrator 23.0.4, SVG Export Plug-In . SVG Version: 6.00 Build 0)  -->
<svg version="1.1" id="Capa_1" xmlns="http://www.w3.org/2000/svg" xmlns:xlink="http://www.w3.org/1999/xlink" x="0px" y="0px"
	 viewBox="0 0 145 145" style="enable-background:new 0 0 145 145;" xml:space="preserve">
<style type="text/css">
	.st0{fill:none;stroke:#253669;stroke-width:5;stroke-linejoin:round;}
	.st1{fill:none;stroke:#253669;stroke-width:5;}
	.st2{fill-rule:evenodd;clip-rule:evenodd;fill:#FFFFFF;stroke:#253669;stroke-width:5;}
</style>
<title>Ícono_5</title>
<desc>Created with Sketch.</desc>
<g id="Ícono_5">
	
		<g id="Group-18" transform="translate(73.000000, 63.000000) rotate(-45.000000) translate(-73.000000, -63.000000) translate(6.000000, 4.000000)">
		<g id="Group-17">
			<path id="Path" class="st0" d="M92,98.6v9.5l0,0c0,5.2-4.3,9.5-9.5,9.5c-4.9,0-9-3.8-9.5-8.6c0-0.3,0-0.6,0-0.9
				c0,5.2-4.3,9.5-9.5,9.5c-2.4,0-4.7-0.9-6.4-2.4c-1.9-1.7-3.1-4.3-3.1-7.1c0,0.3,0,0.6,0,0.9c-0.5,4.8-4.5,8.6-9.5,8.6
				c-5.2,0-9.5-4.3-9.5-9.5c0,5.2-4.3,9.5-9.5,9.5s-9.5-4.3-9.5-9.5v-8.3l-0.1,0V35.4C15.9,12.8,32.4,0.2,55,0.2
				c19.7,0,31.9,11.5,35.9,30"/>
			<path id="Combined-Shape" class="st1" d="M92,97.2c16.5-8.1,24.5-19,24.5-32.8c0-19.6-15.9-35.5-35.5-35.5h-5l-0.1,0
				c-4.4-0.2-9.7-0.3-15.7-0.4c-6.1,0-9.7,4.4-9.7,9.1c0,4.7,3.5,9.8,8.2,10.1c2.1,0.1,6.1,0.1,15.6,0c0,0,0,0,0,0
				c8.8-0.1,11.9-0.1,14.6,0l2.4,0L92,97.2z"/>
			<g id="Group-16" transform="translate(0.000000, 25.584122)">
				<path id="Rectangle" class="st2" d="M30,11L30,11c0,4.4-3.6,8-8,8H11c-4.4,0-8-3.6-8-8l0,0c0-4.4,3.6-8,8-8h11
					C26.4,3,30,6.6,30,11z"/>
				<path class="st2" d="M30,27.5L30,27.5c0,4.4-3.6,8-8,8H11c-4.4,0-8-3.6-8-8l0,0c0-4.4,3.6-8,8-8h11C26.4,19.5,30,23.1,30,27.5z"
					/>
				<path class="st2" d="M30,44L30,44c0,4.4-3.6,8-8,8H11c-4.4,0-8-3.6-8-8l0,0c0-4.4,3.6-8,8-8h11C26.4,36,30,39.6,30,44z"/>
				<path class="st2" d="M30,60L30,60c0,4.4-3.6,8-8,8H11c-4.4,0-8-3.6-8-8l0,0c0-4.4,3.6-8,8-8h11C26.4,52,30,55.6,30,60z"/>
			</g>
		</g>
	</g>
</g>
</svg>
