<?xml version="1.0" encoding="utf-8"?>
<!-- Generator: Adobe Illustrator 23.0.4, SVG Export Plug-In . SVG Version: 6.00 Build 0)  -->
<svg version="1.1" id="Capa_1" xmlns="http://www.w3.org/2000/svg" xmlns:xlink="http://www.w3.org/1999/xlink" x="0px" y="0px"
	 viewBox="0 0 145 145" style="enable-background:new 0 0 145 145;" xml:space="preserve">
<style type="text/css">
	.st0{fill:none;stroke:#253669;stroke-width:5;stroke-linecap:round;}
	.st1{fill:none;stroke:#253669;stroke-width:6;stroke-linecap:round;}
</style>
<title>Ícono_3</title>
<desc>Created with Sketch.</desc>
<g id="Ícono_3">
	<g id="Group-20" transform="translate(2.000000, 13.000000)">
		<path id="Path" class="st0" d="M55.8,94c-6.5,0-13.3,0-26.3,0C13.2,94,0,80.8,0,64.5S13.2,35,29.5,35h12.2
			C43.3,15.4,59.6,0,79.6,0c20.2,0,36.8,15.8,37.9,35.8c13,3.1,22.7,14.8,22.7,28.7c0,16.3-13.2,29.5-29.5,29.5
			c-13.4,0-21.3,0-26.8,0"/>
		<path id="Line-6" class="st0" d="M70.1,52.5V118"/>
		<polyline id="Path-3" class="st1" points="52.8,69.9 69.8,52.5 86.8,69.9 		"/>
	</g>
</g>
</svg>
