<?xml version="1.0" encoding="UTF-8"?>
<svg width="145px" height="145px" viewBox="0 0 145 145" version="1.1" xmlns="http://www.w3.org/2000/svg" xmlns:xlink="http://www.w3.org/1999/xlink">
    <!-- Generator: Sketch 55.2 (78181) - https://sketchapp.com -->
    <title>Ícono_4</title>
    <desc>Created with Sketch.</desc>
    <g id="Ícono_4" stroke="none" stroke-width="1" fill="none" fill-rule="evenodd">
        <g id="Group" transform="translate(5.000000, 5.000000)" stroke="#000000" stroke-width="5">
            <g id="Group-19" stroke-linecap="round">
                <path d="M66.1884363,51.8046111 C66.3929486,50.734471 66.5,49.6297371 66.5,48.5 C66.5,38.8350169 58.6649831,31 49,31 C39.3350169,31 31.5,38.8350169 31.5,48.5 C31.5,58.1649831 39.3350169,66 49,66 L49,66 C50.4048706,66 51.7710765,65.8344572 53.0801753,65.5218141" id="Path"></path>
                <path d="M79.7165641,63.9819972 C81.8210793,59.5989007 83,54.6871262 83,49.5 C83,30.9984609 68.0015391,16 49.5,16 C30.9984609,16 16,30.9984609 16,49.5 C16,68.0015391 30.9984609,83 49.5,83 L49.5,83 C55.2122322,83 60.5905418,81.5703074 65.2966167,79.0492341" id="Path"></path>
                <path d="M90.1028142,77.82115 C95.7104927,69.7966296 99,60.0324676 99,49.5 C99,22.1619049 76.8380951,0 49.5,0 C22.1619049,0 0,22.1619049 0,49.5 C0,76.8380951 22.1619049,99 49.5,99 L49.5,99 C60.2077007,99 70.1213179,95.6001243 78.220223,89.8210016" id="Path"></path>
                <path d="M49.5,48.5 L115.266951,114.266951" id="Line-5"></path>
            </g>
            <polygon id="Path-2" stroke-linejoin="round" points="95.5 94.0349845 95.5 114.444892 115.536667 135 115.536667 114.517492 135.5 114.517492 115.5 94"></polygon>
        </g>
    </g>
</svg>