<?xml version="1.0" encoding="utf-8"?>
<!-- Generator: Adobe Illustrator 23.0.4, SVG Export Plug-In . SVG Version: 6.00 Build 0)  -->
<svg version="1.1" id="Capa_1" xmlns="http://www.w3.org/2000/svg" xmlns:xlink="http://www.w3.org/1999/xlink" x="0px" y="0px"
	 viewBox="0 0 612 421.83" style="enable-background:new 0 0 612 421.83;" xml:space="preserve">
<style type="text/css">
	.st0{fill:#B2D3EA;}
	.st1{fill:#1A3E78;}
	.st2{fill:#3A6DAC;}
	.st3{fill:#284F8A;}
	.st4{fill:#D5ECFB;}
	.st5{fill:#FFFFFF;}
	.st6{fill:#5793CE;}
	.st7{fill:#523F92;}
	.st8{fill:#FDD762;}
	.st9{fill:#F8C0B0;}
	.st10{fill:#644696;}
	.st11{fill:#6C4B99;}
	.st12{fill:#EB9D93;}
	.st13{fill:#8865A9;}
	.st14{fill:#D88A2C;}
	.st15{fill:#BB9FCC;}
	.st16{fill:#E8A304;}
	.st17{fill:#E93E8F;}
	.st18{fill:#584193;}
	.st19{fill:#5E4495;}
</style>
<g>
	<g>
		<g>
			<path class="st0" d="M226.9,178.98l-23.04-13.4c-1.94-1.12-1.7-3.08,0.54-4.38l21.96-12.79c2.25-1.3,5.64-1.44,7.59-0.31
				l23.04,13.4c1.94,1.12,1.7,3.08-0.54,4.38l-21.96,12.79C232.24,179.96,228.84,180.1,226.9,178.98z"/>
			<g>
				<path class="st1" d="M265.84,136.01L265.84,136.01v-5.86l-31.15-0.02l0.21-0.01c-2.47-1.43-6.79-1.25-9.64,0.4l0.92-0.39
					l-31.17-0.02v6.26c-0.07,0.97,0.47,1.9,1.66,2.58l29.28,17.03c2.47,1.43,6.79,1.25,9.64-0.4l27.9-16.26
					C265.14,138.38,265.93,137.15,265.84,136.01z"/>
				<path class="st2" d="M230.43,129.16c-1.81,0.04-3.68,0.5-5.17,1.36l0.92-0.39l-31.17-0.02v6.26c-0.07,0.97,0.47,1.9,1.66,2.58
					l29.28,17.03c1.19,0.69,2.8,1,4.47,0.96L230.43,129.16z"/>
				<path class="st0" d="M198.54,130.12l-3.53,0v6.26c-0.07,0.97,0.47,1.9,1.66,2.58l1.87,1.08V130.12z"/>
				<path class="st3" d="M226.57,156.3c2.13,0.91,5.21,0.86,7.71-0.09v-8.19h-7.71V156.3z"/>
				<path class="st4" d="M225.95,149.78l-29.28-17.03c-2.47-1.43-2.16-3.92,0.69-5.57l27.9-16.26c2.85-1.65,7.17-1.83,9.64-0.4
					l29.28,17.03c2.47,1.43,2.16,3.92-0.69,5.57l-27.9,16.26C232.73,151.03,228.42,151.21,225.95,149.78z"/>
				<g>
					<path class="st5" d="M231.62,126.92l-8.61-5.01c-1.15-0.66-1.15-1.74,0-2.41c1.15-0.66,3.02-0.66,4.17,0l8.61,5.01
						c1.15,0.66,1.15,1.74,0,2.41C234.64,127.58,232.77,127.58,231.62,126.92z"/>
				</g>
				<g>
					<path class="st5" d="M244.14,134.24l-5.23-3.08c-1.15-0.66-1.15-1.74,0-2.41c1.15-0.66,3.02-0.66,4.17,0l5.23,3.08
						c1.15,0.66,1.15,1.74,0,2.41S245.29,134.9,244.14,134.24z"/>
				</g>
				<g>
					<path class="st5" d="M219.55,130l-5.23-3.08c-1.15-0.66-1.15-1.74,0-2.41s3.02-0.66,4.17,0l5.23,3.08
						c1.15,0.66,1.15,1.74,0,2.41C222.57,130.66,220.7,130.66,219.55,130z"/>
				</g>
			</g>
		</g>
	</g>
	<path class="st0" d="M463.92,308.05l-163.39-94.34c-4.62-2.67-12.7-2.33-18.03,0.75l-111.26,64.21c-5.34,3.08-5.92,7.74-1.29,10.41
		l56.17,32.43c-4.46,0.39-8.75,1.56-12.18,3.55c-8.56,4.94-8.56,12.95,0,17.89c8.56,4.94,22.44,4.94,30.99,0
		c3.43-1.98,5.47-4.46,6.14-7.03l13.27,7.66c-2.76,0.63-5.35,1.58-7.59,2.87c-8.73,5.04-8.73,13.21,0,18.26
		c8.73,5.04,22.89,5.04,31.62,0c2.23-1.29,3.89-2.79,4.98-4.38l39.98,23.08c4.62,2.67,12.7,2.33,18.03-0.75l111.26-64.21
		C467.96,315.38,468.54,310.72,463.92,308.05z"/>
	<g>
		<path class="st1" d="M508.24,114.02L338.07,15.77c-1.98-1.14-3.98-1.32-5.77-0.71l0.01-0.02l-0.31,0.12
			c-0.02,0.01-0.05,0.02-0.08,0.03l-6.15,2.35l5.52,2.7c-0.02,0.1-0.06,0.2-0.08,0.3L303.5,146.72c-1.39,6.31,1.39,13.69,6.2,16.46
			l166.07,95.88l-0.59,7.04l6.72-2.6c2.26-1.06,4.07-3.44,4.81-6.85l27.72-126.17C515.83,124.17,513.05,116.8,508.24,114.02z"/>
		<path class="st2" d="M508.24,114.02L338.07,15.77c-1.98-1.14-3.98-1.32-5.77-0.71l0.01-0.02l-0.31,0.12
			c-0.02,0.01-0.05,0.02-0.08,0.03l-6.15,2.35l5.52,2.7c-0.02,0.1-0.06,0.2-0.08,0.3l-18.27,83.15l83.26,64.87l117.4-47.77
			C512.49,117.88,510.61,115.39,508.24,114.02z"/>
		<path class="st3" d="M501.82,133.42l12.95-5.52c0.24-5.02-1.84-10.2-5.25-12.97l-20.5,8.63L501.82,133.42z"/>
		<path class="st4" d="M469.28,265.44l-170.17-98.25c-4.81-2.78-7.59-10.15-6.2-16.46l27.72-126.17c1.39-6.31,6.41-9.18,11.23-6.4
			l170.17,98.25c4.81,2.78,7.59,10.15,6.2,16.46l-27.72,126.17C479.12,265.35,474.09,268.22,469.28,265.44z"/>
		<path class="st5" d="M465.59,256.05L305.55,163.7c-4.41-2.54-6.95-9.29-5.68-15.07l25.36-115.45c1.27-5.78,5.87-8.4,10.27-5.86
			l160.04,92.35c4.41,2.54,6.95,9.29,5.68,15.07L475.87,250.2C474.6,255.97,470,258.6,465.59,256.05z"/>
		<path class="st5" d="M465.59,256.05L305.55,163.7c-4.41-2.54-6.95-9.29-5.68-15.07l25.36-115.45c1.27-5.78,5.87-8.4,10.27-5.86
			l160.04,92.35c4.41,2.54,6.95,9.29,5.68,15.07L475.87,250.2C474.6,255.97,470,258.6,465.59,256.05z"/>
		<path class="st1" d="M471.63,269.72l-23.26-3.07l-150.15-86.69c-4.81-2.78-13.22-2.43-18.78,0.78l-106.4,61.41l-14.07-1.86v7.98
			l0.01,0c-0.09,1.84,0.96,3.62,3.23,4.93l170.17,98.25c4.81,2.78,13.22,2.43,18.78-0.78l115.87-66.88
			c3.13-1.81,4.69-4.13,4.59-6.32l0,0V269.72z"/>
		<path class="st2" d="M358.81,214.94l-10.67-6.16H230.86l-57.82,33.36l-14.07-1.86v7.98l0.01,0c-0.09,1.84,0.96,3.62,3.23,4.93
			l170.17,98.25c2.54,1.47,6.09,2.06,9.69,1.82L358.81,214.94z"/>
		<path class="st6" d="M165.21,241.11l-6.24-0.82v7.98l0.01,0c-0.09,1.84,0.96,3.62,3.23,4.93l3,1.73V241.11z"/>
		<path class="st3" d="M334.1,352.24c4.56,1.73,11.09,1.35,15.96-0.99v-17.8H334.1V352.24z"/>
		<path class="st4" d="M332.38,343.47l-170.17-98.25c-4.81-2.78-4.21-7.63,1.35-10.84l115.87-66.88c5.56-3.21,13.97-3.56,18.78-0.78
			l170.17,98.25c4.81,2.78,4.21,7.63-1.35,10.84l-115.87,66.88C345.61,345.9,337.2,346.25,332.38,343.47z"/>
		<g>
			<path class="st1" d="M234.59,212.7l-7.7-4.45c-0.62-0.36-0.54-0.98,0.17-1.39l9.09-5.25c0.71-0.41,1.79-0.46,2.41-0.1l7.7,4.45
				c0.62,0.36,0.54,0.98-0.17,1.39L237,212.6C236.29,213.01,235.21,213.05,234.59,212.7z"/>
			<path class="st1" d="M246.48,219.56l-7.7-4.45c-0.62-0.36-0.54-0.98,0.17-1.39l9.09-5.25c0.71-0.41,1.79-0.46,2.41-0.1l7.7,4.45
				c0.62,0.36,0.54,0.98-0.17,1.39l-9.09,5.25C248.18,219.87,247.1,219.92,246.48,219.56z"/>
			<path class="st1" d="M258.37,226.43l-7.7-4.45c-0.62-0.36-0.54-0.98,0.17-1.39l9.09-5.25c0.71-0.41,1.79-0.46,2.41-0.1l7.7,4.45
				c0.62,0.36,0.54,0.98-0.17,1.39l-9.09,5.25C260.07,226.74,258.99,226.78,258.37,226.43z"/>
			<path class="st1" d="M274.82,220.76l-7.7-4.45c-0.62-0.36-0.54-0.98,0.17-1.39l7.63-4.4c0.71-0.41,1.79-0.46,2.41-0.1l7.7,4.45
				c0.62,0.36,0.54,0.98-0.17,1.39l-7.63,4.4C276.51,221.07,275.43,221.11,274.82,220.76z"/>
			<path class="st1" d="M286.71,227.62l-7.7-4.45c-0.62-0.36-0.54-0.98,0.17-1.39l7.63-4.4c0.71-0.41,1.79-0.46,2.41-0.1l7.7,4.45
				c0.62,0.36,0.54,0.98-0.17,1.39l-7.63,4.4C288.4,227.93,287.32,227.98,286.71,227.62z"/>
			<path class="st1" d="M298.6,234.49l-7.7-4.45c-0.62-0.36-0.54-0.98,0.17-1.39l7.63-4.4c0.71-0.41,1.79-0.46,2.41-0.1l7.7,4.45
				c0.62,0.36,0.54,0.98-0.17,1.39l-7.63,4.4C300.29,234.8,299.21,234.84,298.6,234.49z"/>
			<path class="st1" d="M310.49,241.35l-7.7-4.45c-0.62-0.36-0.54-0.98,0.17-1.39l7.63-4.4c0.71-0.41,1.79-0.46,2.41-0.1l7.7,4.45
				c0.62,0.36,0.54,0.98-0.17,1.39l-7.63,4.4C312.18,241.66,311.1,241.71,310.49,241.35z"/>
			<path class="st1" d="M322.38,248.22l-7.7-4.45c-0.62-0.36-0.54-0.98,0.17-1.39l7.63-4.4c0.71-0.41,1.79-0.46,2.41-0.1l7.7,4.45
				c0.62,0.36,0.54,0.98-0.17,1.39l-7.63,4.4C324.07,248.53,322.99,248.57,322.38,248.22z"/>
			<path class="st1" d="M334.27,255.08l-7.7-4.45c-0.62-0.36-0.54-0.98,0.17-1.39l7.63-4.4c0.71-0.41,1.79-0.46,2.41-0.1l7.7,4.45
				c0.62,0.36,0.54,0.98-0.17,1.39l-7.63,4.4C335.96,255.39,334.88,255.44,334.27,255.08z"/>
			<path class="st1" d="M346.16,261.95l-7.7-4.45c-0.62-0.36-0.54-0.98,0.17-1.39l7.63-4.4c0.71-0.41,1.79-0.46,2.41-0.1l7.7,4.45
				c0.62,0.36,0.54,0.98-0.17,1.39l-7.63,4.4C347.85,262.26,346.77,262.3,346.16,261.95z"/>
			<path class="st1" d="M358.05,268.81l-7.7-4.45c-0.62-0.36-0.54-0.98,0.17-1.39l7.63-4.4c0.71-0.41,1.79-0.46,2.41-0.1l7.7,4.45
				c0.62,0.36,0.54,0.98-0.17,1.39l-7.63,4.4C359.74,269.12,358.66,269.17,358.05,268.81z"/>
			<path class="st1" d="M369.94,275.68l-7.7-4.45c-0.62-0.36-0.54-0.98,0.17-1.39l7.63-4.4c0.71-0.41,1.79-0.46,2.41-0.1l7.7,4.45
				c0.62,0.36,0.54,0.98-0.17,1.39l-7.63,4.4C371.63,275.99,370.56,276.03,369.94,275.68z"/>
			<path class="st1" d="M381.83,282.54l-7.7-4.45c-0.62-0.36-0.54-0.98,0.17-1.39l7.63-4.4c0.71-0.41,1.79-0.46,2.41-0.1l7.7,4.45
				c0.62,0.36,0.54,0.98-0.17,1.39l-7.63,4.4C383.53,282.85,382.45,282.9,381.83,282.54z"/>
			<path class="st2" d="M292.33,217.51l-7.7-4.45c-0.62-0.36-0.54-0.98,0.17-1.39l7.63-4.4c0.71-0.41,1.79-0.46,2.41-0.1l7.7,4.45
				c0.62,0.36,0.54,0.98-0.17,1.39l-7.63,4.4C294.03,217.82,292.95,217.86,292.33,217.51z"/>
			<path class="st2" d="M280.27,210.54l-7.7-4.45c-0.62-0.36-0.54-0.98,0.17-1.39l7.63-4.4c0.71-0.41,1.79-0.46,2.41-0.1l7.7,4.45
				c0.62,0.36,0.54,0.98-0.17,1.39l-7.63,4.4C281.97,210.85,280.89,210.9,280.27,210.54z"/>
			<path class="st1" d="M268.18,203.56l-16.58-9.57c-0.62-0.36-0.54-0.98,0.17-1.39l7.63-4.4c0.71-0.41,1.79-0.46,2.41-0.1
				l16.58,9.57c0.62,0.36,0.54,0.98-0.17,1.39l-7.63,4.4C269.88,203.87,268.8,203.92,268.18,203.56z"/>
			<path class="st1" d="M276.63,195.07l-13.46-7.77c-0.62-0.36-0.54-0.98,0.17-1.39l7.63-4.4c0.71-0.41,1.79-0.46,2.41-0.1
				l13.46,7.77c0.62,0.36,0.54,0.98-0.17,1.39l-7.63,4.4C278.33,195.39,277.25,195.43,276.63,195.07z"/>
			<path class="st2" d="M304.22,224.37l-7.7-4.45c-0.62-0.36-0.54-0.98,0.17-1.39l7.63-4.4c0.71-0.41,1.79-0.46,2.41-0.1l7.7,4.45
				c0.62,0.36,0.54,0.98-0.17,1.39l-7.63,4.4C305.92,224.68,304.84,224.73,304.22,224.37z"/>
			<path class="st1" d="M316.12,231.24l-7.7-4.45c-0.62-0.36-0.54-0.98,0.17-1.39l7.63-4.4c0.71-0.41,1.79-0.46,2.41-0.1l7.7,4.45
				c0.62,0.36,0.54,0.98-0.17,1.39l-7.63,4.4C317.81,231.55,316.73,231.59,316.12,231.24z"/>
			<path class="st1" d="M328.01,238.1l-7.7-4.45c-0.62-0.36-0.54-0.98,0.17-1.39l7.63-4.4c0.71-0.41,1.79-0.46,2.41-0.1l7.7,4.45
				c0.62,0.36,0.54,0.98-0.17,1.39l-7.63,4.4C329.7,238.41,328.62,238.46,328.01,238.1z"/>
			<path class="st1" d="M339.9,244.97l-7.7-4.45c-0.62-0.36-0.54-0.98,0.17-1.39l7.63-4.4c0.71-0.41,1.79-0.46,2.41-0.1l7.7,4.45
				c0.62,0.36,0.54,0.98-0.17,1.39l-7.63,4.4C341.59,245.28,340.51,245.32,339.9,244.97z"/>
			<path class="st1" d="M351.79,251.83l-7.7-4.45c-0.62-0.36-0.54-0.98,0.17-1.39l7.63-4.4c0.71-0.41,1.79-0.46,2.41-0.1l7.7,4.45
				c0.62,0.36,0.54,0.98-0.17,1.39l-7.63,4.4C353.48,252.14,352.4,252.19,351.79,251.83z"/>
			<path class="st1" d="M363.68,258.7l-7.7-4.45c-0.62-0.36-0.54-0.98,0.17-1.39l7.63-4.4c0.71-0.41,1.79-0.46,2.41-0.1l7.7,4.45
				c0.62,0.36,0.54,0.98-0.17,1.39l-7.63,4.4C365.37,259.01,364.29,259.05,363.68,258.7z"/>
			<path class="st1" d="M375.57,265.56l-7.7-4.45c-0.62-0.36-0.54-0.98,0.17-1.39l7.63-4.4c0.71-0.41,1.79-0.46,2.41-0.1l7.7,4.45
				c0.62,0.36,0.54,0.98-0.17,1.39l-7.63,4.4C377.26,265.87,376.18,265.92,375.57,265.56z"/>
			<path class="st1" d="M387.46,272.43l-7.7-4.45c-0.62-0.36-0.54-0.98,0.17-1.39l7.63-4.4c0.71-0.41,1.79-0.46,2.41-0.1l7.7,4.45
				c0.62,0.36,0.54,0.98-0.17,1.39l-7.63,4.4C389.15,272.74,388.07,272.78,387.46,272.43z"/>
			<path class="st1" d="M399.35,279.29l-7.7-4.45c-0.62-0.36-0.54-0.98,0.17-1.39l7.63-4.4c0.71-0.41,1.79-0.46,2.41-0.1l7.7,4.45
				c0.62,0.36,0.54,0.98-0.17,1.39l-7.63,4.4C401.04,279.6,399.96,279.65,399.35,279.29z"/>
			<path class="st1" d="M420.48,291.49l-16.8-9.7c-0.62-0.36-0.54-0.98,0.17-1.39l7.63-4.4c0.71-0.41,1.79-0.46,2.41-0.1l16.8,9.7
				c0.62,0.36,0.54,0.98-0.17,1.39l-7.63,4.4C422.18,291.81,421.1,291.85,420.48,291.49z"/>
			<path class="st1" d="M443.63,278.13l-14.18-8.19c-0.62-0.36-0.54-0.98,0.17-1.39l7.63-4.4c0.71-0.41,1.79-0.46,2.41-0.1
				l14.18,8.19c0.62,0.36,0.54,0.98-0.17,1.39l-7.63,4.4C445.33,278.44,444.25,278.49,443.63,278.13z"/>
			<path class="st1" d="M325.05,223.03l-7.7-4.45c-0.62-0.36-0.54-0.98,0.17-1.39l7.63-4.4c0.71-0.41,1.79-0.46,2.41-0.1l7.7,4.45
				c0.62,0.36,0.54,0.98-0.17,1.39l-7.63,4.4C326.75,223.34,325.67,223.39,325.05,223.03z"/>
			<path class="st1" d="M312.86,215.99l-7.7-4.45c-0.62-0.36-0.54-0.98,0.17-1.39l7.63-4.4c0.71-0.41,1.79-0.46,2.41-0.1l7.7,4.45
				c0.62,0.36,0.54,0.98-0.17,1.39l-7.63,4.4C314.56,216.31,313.48,216.35,312.86,215.99z"/>
			<path class="st2" d="M300.68,208.96l-7.7-4.45c-0.62-0.36-0.54-0.98,0.17-1.39l7.63-4.4c0.71-0.41,1.79-0.46,2.41-0.1l7.7,4.45
				c0.62,0.36,0.54,0.98-0.17,1.39l-7.63,4.4C302.37,209.27,301.29,209.31,300.68,208.96z"/>
			<path class="st1" d="M288.49,201.92l-7.7-4.45c-0.62-0.36-0.54-0.98,0.17-1.39l7.63-4.4c0.71-0.41,1.79-0.46,2.41-0.1l7.7,4.45
				c0.62,0.36,0.54,0.98-0.17,1.39l-7.63,4.4C290.19,202.23,289.11,202.28,288.49,201.92z"/>
			<path class="st1" d="M336.94,229.89l-7.7-4.45c-0.62-0.36-0.54-0.98,0.17-1.39l7.63-4.4c0.71-0.41,1.79-0.46,2.41-0.1l7.7,4.45
				c0.62,0.36,0.54,0.98-0.17,1.39l-7.63,4.4C338.64,230.21,337.56,230.25,336.94,229.89z"/>
			<path class="st1" d="M348.83,236.76l-7.7-4.45c-0.62-0.36-0.54-0.98,0.17-1.39l7.63-4.4c0.71-0.41,1.79-0.46,2.41-0.1l7.7,4.45
				c0.62,0.36,0.54,0.98-0.17,1.39l-7.63,4.4C350.53,237.07,349.45,237.12,348.83,236.76z"/>
			<path class="st1" d="M360.72,243.62l-7.7-4.45c-0.62-0.36-0.54-0.98,0.17-1.39l7.63-4.4c0.71-0.41,1.79-0.46,2.41-0.1l7.7,4.45
				c0.62,0.36,0.54,0.98-0.17,1.39l-7.63,4.4C362.42,243.94,361.34,243.98,360.72,243.62z"/>
			<path class="st1" d="M372.61,250.49l-7.7-4.45c-0.62-0.36-0.54-0.98,0.17-1.39l7.63-4.4c0.71-0.41,1.79-0.46,2.41-0.1l7.7,4.45
				c0.62,0.36,0.54,0.98-0.17,1.39l-7.63,4.4C374.31,250.8,373.23,250.85,372.61,250.49z"/>
			<path class="st1" d="M384.5,257.35l-7.7-4.45c-0.62-0.36-0.54-0.98,0.17-1.39l7.63-4.4c0.71-0.41,1.79-0.46,2.41-0.1l7.7,4.45
				c0.62,0.36,0.54,0.98-0.17,1.39l-7.63,4.4C386.2,257.66,385.12,257.71,384.5,257.35z"/>
			<path class="st1" d="M396.39,264.22l-7.7-4.45c-0.62-0.36-0.54-0.98,0.17-1.39l7.63-4.4c0.71-0.41,1.79-0.46,2.41-0.1l7.7,4.45
				c0.62,0.36,0.54,0.98-0.17,1.39l-7.63,4.4C398.09,264.53,397.01,264.57,396.39,264.22z"/>
			<path class="st1" d="M408.28,271.08l-7.7-4.45c-0.62-0.36-0.54-0.98,0.17-1.39l7.63-4.4c0.71-0.41,1.79-0.46,2.41-0.1l7.7,4.45
				c0.62,0.36,0.54,0.98-0.17,1.39l-7.63,4.4C409.98,271.39,408.9,271.44,408.28,271.08z"/>
			<path class="st1" d="M420.17,277.95l-7.7-4.45c-0.62-0.36-0.54-0.98,0.17-1.39l7.63-4.4c0.71-0.41,1.79-0.46,2.41-0.1l7.7,4.45
				c0.62,0.36,0.54,0.98-0.17,1.39l-7.63,4.4C421.87,278.26,420.79,278.3,420.17,277.95z"/>
			<path class="st1" d="M432.06,284.81l-7.7-4.45c-0.62-0.36-0.54-0.98,0.17-1.39l7.63-4.4c0.71-0.41,1.79-0.46,2.41-0.1l7.7,4.45
				c0.62,0.36,0.54,0.98-0.17,1.39l-7.63,4.4C433.76,285.12,432.68,285.17,432.06,284.81z"/>
			<path class="st1" d="M318.79,206.05l-7.7-4.45c-0.62-0.36-0.54-0.98,0.17-1.39l7.63-4.4c0.71-0.41,1.79-0.46,2.41-0.1l7.7,4.45
				c0.62,0.36,0.54,0.98-0.17,1.39l-7.63,4.4C320.48,206.36,319.4,206.41,318.79,206.05z"/>
			<path class="st1" d="M306.96,199.22l-7.7-4.45c-0.62-0.36-0.54-0.98,0.17-1.39l7.63-4.4c0.71-0.41,1.79-0.46,2.41-0.1l7.7,4.45
				c0.62,0.36,0.54,0.98-0.17,1.39l-7.63,4.4C308.65,199.53,307.57,199.58,306.96,199.22z"/>
			<path class="st1" d="M295.12,192.39l-7.7-4.45c-0.62-0.36-0.54-0.98,0.17-1.39l7.63-4.4c0.71-0.41,1.79-0.46,2.41-0.1l7.7,4.45
				c0.62,0.36,0.54,0.98-0.17,1.39l-7.63,4.4C296.82,192.7,295.74,192.74,295.12,192.39z"/>
			<path class="st1" d="M283.29,185.56l-7.7-4.45c-0.62-0.36-0.54-0.98,0.17-1.39l7.63-4.4c0.71-0.41,1.79-0.46,2.41-0.1l7.7,4.45
				c0.62,0.36,0.54,0.98-0.17,1.39l-7.63,4.4C284.99,185.87,283.91,185.91,283.29,185.56z"/>
			<path class="st1" d="M295.46,178.53l-7.7-4.45c-0.62-0.36-0.54-0.98,0.17-1.39l2.52-1.46c0.71-0.41,1.79-0.46,2.41-0.1l7.7,4.45
				c0.62,0.36,0.54,0.98-0.17,1.39l-2.52,1.46C297.16,178.85,296.08,178.89,295.46,178.53z"/>
			<path class="st1" d="M310.9,187.45l-7.7-4.45c-0.62-0.36-0.54-0.98,0.17-1.39l2.52-1.46c0.71-0.41,1.79-0.46,2.41-0.1l7.7,4.45
				c0.62,0.36,0.54,0.98-0.17,1.39l-2.52,1.46C312.6,187.76,311.52,187.8,310.9,187.45z"/>
			<path class="st1" d="M322.68,194.25l-7.7-4.45c-0.62-0.36-0.54-0.98,0.17-1.39l2.52-1.46c0.71-0.41,1.79-0.46,2.41-0.1l7.7,4.45
				c0.62,0.36,0.54,0.98-0.17,1.39l-2.52,1.46C324.38,194.56,323.3,194.61,322.68,194.25z"/>
			<path class="st1" d="M334.46,201.05l-7.7-4.45c-0.62-0.36-0.54-0.98,0.17-1.39l2.52-1.46c0.71-0.41,1.79-0.46,2.41-0.1l7.7,4.45
				c0.62,0.36,0.54,0.98-0.17,1.39l-2.52,1.46C336.16,201.36,335.08,201.41,334.46,201.05z"/>
			<path class="st1" d="M346.24,207.85l-7.7-4.45c-0.62-0.36-0.54-0.98,0.17-1.39l2.52-1.46c0.71-0.41,1.79-0.46,2.41-0.1l7.7,4.45
				c0.62,0.36,0.54,0.98-0.17,1.39l-2.52,1.46C347.94,208.17,346.86,208.21,346.24,207.85z"/>
			<path class="st1" d="M412.02,245.83l-7.7-4.45c-0.62-0.36-0.54-0.98,0.17-1.39l2.52-1.46c0.71-0.41,1.79-0.46,2.41-0.1l7.7,4.45
				c0.62,0.36,0.54,0.98-0.17,1.39l-2.52,1.46C413.72,246.14,412.64,246.19,412.02,245.83z"/>
			<path class="st1" d="M423.8,252.63l-7.7-4.45c-0.62-0.36-0.54-0.98,0.17-1.39l2.52-1.46c0.71-0.41,1.79-0.46,2.41-0.1l7.7,4.45
				c0.62,0.36,0.54,0.98-0.17,1.39l-2.52,1.46C425.5,252.94,424.42,252.99,423.8,252.63z"/>
			<path class="st1" d="M435.58,259.43l-7.7-4.45c-0.62-0.36-0.54-0.98,0.17-1.39l2.52-1.46c0.71-0.41,1.79-0.46,2.41-0.1l7.7,4.45
				c0.62,0.36,0.54,0.98-0.17,1.39l-2.52,1.46C437.28,259.75,436.2,259.79,435.58,259.43z"/>
			<path class="st1" d="M447.36,266.24l-7.7-4.45c-0.62-0.36-0.54-0.98,0.17-1.39l2.52-1.46c0.71-0.41,1.79-0.46,2.41-0.1l7.7,4.45
				c0.62,0.36,0.54,0.98-0.17,1.39l-2.52,1.46C449.06,266.55,447.98,266.59,447.36,266.24z"/>
			<path class="st1" d="M330.68,212.91l-7.7-4.45c-0.62-0.36-0.54-0.98,0.17-1.39l7.63-4.4c0.71-0.41,1.79-0.46,2.41-0.1l7.7,4.45
				c0.62,0.36,0.54,0.98-0.17,1.39l-7.63,4.4C332.37,213.23,331.29,213.27,330.68,212.91z"/>
			<path class="st1" d="M342.57,219.78l-7.7-4.45c-0.62-0.36-0.54-0.98,0.17-1.39l7.63-4.4c0.71-0.41,1.79-0.46,2.41-0.1l7.7,4.45
				c0.62,0.36,0.54,0.98-0.17,1.39l-7.63,4.4C344.26,220.09,343.18,220.14,342.57,219.78z"/>
			<path class="st1" d="M354.46,226.64l-7.7-4.45c-0.62-0.36-0.54-0.98,0.17-1.39l7.63-4.4c0.71-0.41,1.79-0.46,2.41-0.1l7.7,4.45
				c0.62,0.36,0.54,0.98-0.17,1.39l-7.63,4.4C356.15,226.96,355.08,227,354.46,226.64z"/>
			<path class="st1" d="M366.35,233.51l-7.7-4.45c-0.62-0.36-0.54-0.98,0.17-1.39l7.63-4.4c0.71-0.41,1.79-0.46,2.41-0.1l7.7,4.45
				c0.62,0.36,0.54,0.98-0.17,1.39l-7.63,4.4C368.05,233.82,366.97,233.87,366.35,233.51z"/>
			<path class="st1" d="M378.24,240.37l-7.7-4.45c-0.62-0.36-0.54-0.98,0.17-1.39l7.63-4.4c0.71-0.41,1.79-0.46,2.41-0.1l7.7,4.45
				c0.62,0.36,0.54,0.98-0.17,1.39l-7.63,4.4C379.94,240.69,378.86,240.73,378.24,240.37z"/>
			<path class="st1" d="M390.13,247.24l-7.7-4.45c-0.62-0.36-0.54-0.98,0.17-1.39l7.63-4.4c0.71-0.41,1.79-0.46,2.41-0.1l7.7,4.45
				c0.62,0.36,0.54,0.98-0.17,1.39l-7.63,4.4C391.83,247.55,390.75,247.59,390.13,247.24z"/>
			<path class="st1" d="M402.02,254.1l-7.7-4.45c-0.62-0.36-0.54-0.98,0.17-1.39l7.63-4.4c0.71-0.41,1.79-0.46,2.41-0.1l7.7,4.45
				c0.62,0.36,0.54,0.98-0.17,1.39l-7.63,4.4C403.72,254.41,402.64,254.46,402.02,254.1z"/>
			<path class="st1" d="M413.91,260.97l-7.7-4.45c-0.62-0.36-0.54-0.98,0.17-1.39l7.63-4.4c0.71-0.41,1.79-0.46,2.41-0.1l7.7,4.45
				c0.62,0.36,0.54,0.98-0.17,1.39l-7.63,4.4C415.61,261.28,414.53,261.32,413.91,260.97z"/>
			<path class="st1" d="M425.8,267.83l-7.7-4.45c-0.62-0.36-0.54-0.98,0.17-1.39l7.63-4.4c0.71-0.41,1.79-0.46,2.41-0.1l7.7,4.45
				c0.62,0.36,0.54,0.98-0.17,1.39l-7.63,4.4C427.5,268.14,426.42,268.19,425.8,267.83z"/>
			<path class="st1" d="M262.7,213.76l-22.68-13.09c-0.62-0.36-0.54-0.98,0.17-1.39l7.63-4.4c0.71-0.41,1.79-0.46,2.41-0.1
				l22.68,13.09c0.62,0.36,0.54,0.98-0.17,1.39l-7.63,4.4C264.4,214.07,263.32,214.12,262.7,213.76z"/>
			<path class="st1" d="M408.77,298.1l-22.68-13.09c-0.62-0.36-0.54-0.98,0.17-1.39l7.63-4.4c0.71-0.41,1.79-0.46,2.41-0.1
				l22.68,13.09c0.62,0.36,0.54,0.98-0.17,1.39l-7.63,4.4C410.47,298.41,409.39,298.45,408.77,298.1z"/>
			<path class="st1" d="M361.22,285.81l-7.7-4.45c-0.62-0.36-0.54-0.98,0.17-1.39l9.09-5.25c0.71-0.41,1.79-0.46,2.41-0.1l7.7,4.45
				c0.62,0.36,0.54,0.98-0.17,1.39l-9.09,5.25C362.92,286.12,361.84,286.16,361.22,285.81z"/>
			<path class="st1" d="M274.87,235.96l-12.31-7.11c-0.62-0.36-0.54-0.98,0.17-1.39l9.09-5.25c0.71-0.41,1.79-0.46,2.41-0.1
				l12.31,7.11c0.62,0.36,0.54,0.98-0.17,1.39l-9.09,5.25C276.57,236.27,275.49,236.31,274.87,235.96z"/>
			<path class="st1" d="M349.77,279.19l-12.31-7.11c-0.62-0.36-0.54-0.98,0.17-1.39l9.09-5.25c0.71-0.41,1.79-0.46,2.41-0.1
				l12.31,7.11c0.62,0.36,0.54,0.98-0.17,1.39l-9.09,5.25C351.46,279.51,350.38,279.55,349.77,279.19z"/>
			<path class="st1" d="M292.03,245.86l-12.31-7.11c-0.62-0.36-0.54-0.98,0.17-1.39l9.09-5.25c0.71-0.41,1.79-0.46,2.41-0.1
				l12.31,7.11c0.62,0.36,0.54,0.98-0.17,1.39l-9.09,5.25C293.73,246.17,292.65,246.22,292.03,245.86z"/>
			<path class="st1" d="M291.47,232.06l53.54,30.91c0.66,0.38,0.66,1.01,0,1.39l-9.27,5.35c-0.66,0.38-1.74,0.38-2.41,0L279.8,238.8
				L291.47,232.06z"/>
			<path class="st1" d="M394.45,298.25l8.58,4.95c0.51,0.29,0.44,0.8-0.14,1.14l-3.72,2.15c-0.59,0.34-1.47,0.37-1.98,0.08
				l-8.58-4.95c-0.51-0.29-0.44-0.8,0.14-1.14l3.72-2.15C393.06,298,393.95,297.96,394.45,298.25z"/>
			<path class="st1" d="M382.46,291.33l8.58,4.95c0.51,0.29,0.44,0.8-0.14,1.14l-3.72,2.15c-0.59,0.34-1.47,0.37-1.98,0.08
				l-8.58-4.95c-0.51-0.29-0.44-0.8,0.14-1.14l3.72-2.15C381.07,291.08,381.96,291.04,382.46,291.33z"/>
			<path class="st1" d="M370.57,284.47l8.58,4.95c0.51,0.29,0.44,0.8-0.14,1.14l-3.72,2.15c-0.59,0.34-1.47,0.37-1.98,0.08
				l-8.58-4.95c-0.51-0.29-0.44-0.8,0.14-1.14l3.72-2.15C369.18,284.21,370.07,284.18,370.57,284.47z"/>
			<path class="st1" d="M389.03,287.54l8.58,4.95c0.51,0.29,0.44,0.8-0.14,1.14l-3.72,2.15c-0.59,0.34-1.47,0.37-1.98,0.08
				l-8.58-4.95c-0.51-0.29-0.44-0.8,0.14-1.14l3.72-2.15C387.64,287.29,388.52,287.25,389.03,287.54z"/>
		</g>
	</g>
	<g>
		<path class="st7" d="M217.86,177.91c0,0,0.57,11.79,1.47,19.71c0.9,7.92,19.97-6.08,19.97-6.08v-9.02L217.86,177.91z"/>
		<g>
			<path class="st1" d="M228.02,324.54c0.29,0.72,5.23,6.73,10.17,8.24c2.15,0.65,3.59,0.74,4.54,0.63
				c0.95-0.11,1.54-1.09,1.22-1.99c-0.85-2.39-3.29-7.38-9.48-10.45C226.08,316.8,228.02,324.54,228.02,324.54z"/>
			<path class="st1" d="M226.37,326.85c0,0,1.86,4.37,2.44,8.02c0.35,2.23-0.87,5.12-1.88,7.04c-0.62,1.19-2.21,1.46-3.2,0.55
				c-1.62-1.47-3.67-4.01-4.01-7.67c-0.57-6.16,0-7.23,0-7.23L226.37,326.85z"/>
			<path class="st8" d="M214.46,252.4c0,0-0.64,7.77,0,16.37c0.64,8.6,2.95,48.79,3.38,58.46c0,0-0.21,2.93,5.45,2.28
				c5.67-0.64,5.21-3.89,5.21-3.89s7.96-0.11,8.21-4.8c0.25-4.69,8.15-56.03,8.15-74.48L214.46,252.4z"/>
			<g>
				<path class="st9" d="M247.82,212.22l3.9,6.04l13.4,16.19c0,0-0.46,1.5-2.13,1.9c-1.3,0.31-12.58-10.45-17.45-15.17
					c-1.29-1.25-1.51-3.25-0.51-4.75L247.82,212.22z"/>
				<path class="st10" d="M240.21,187.43c0,0,6.19-0.16,8.35,8.79c2.16,8.95,3.84,20.16,1.97,21.09c-5.63,2.8-9.19-0.48-9.19-0.48
					L240.21,187.43z"/>
				<path class="st11" d="M242.06,187.81c-1.06-0.44-2.24-0.5-3.34-0.18c-5.28,1.52-25.12,7.34-28.39,10.13
					c-3.78,3.23,5.67,21.38,5.53,27.33c-0.14,5.95-0.81,12.97-1.33,19.43c-0.53,6.47-1.24,10.02,4.05,12.77
					c5.29,2.75,14.32,2.88,21.09-2.28c6.76-5.15,5.54-8.68,5.25-12.42s-2.58-19.92-2.38-24.51c0,0,2.38-1.76,4.15-4.77
					c1.77-3.01-1.35-8.54-2.65-12.14c-1.29-3.6,0.73-7.71,0.33-10.65C244.16,189.02,243.19,188.28,242.06,187.81z"/>
				<path class="st5" d="M235.72,193.99c0.42,3.27-2.58,6.35-6.7,6.87c-4.12,0.53-7.79-1.69-8.21-4.96
					c-0.42-3.27,2.58-6.35,6.7-6.87C231.62,188.5,235.3,190.72,235.72,193.99z"/>
				<path class="st9" d="M233.59,194.27c0.3,2.34-1.84,4.54-4.79,4.91s-5.57-1.21-5.87-3.55c-0.3-2.34,1.84-4.54,4.79-4.91
					C230.66,190.34,233.29,191.93,233.59,194.27z"/>
				<path class="st9" d="M230.67,186.6c0,0-3.58-2.95-4.29-1.45c-0.7,1.49-1.28,7.9-1.28,7.9l7.11,1.91l-1.08-6.49
					C231.13,188.46,232.56,187.25,230.67,186.6z"/>
				<path class="st9" d="M241.79,179.58c-0.35,5.86-5.37,10.32-11.23,9.98c-5.86-0.35-10.32-5.37-9.98-11.23
					c0.35-5.86,5.37-10.32,11.23-9.98C237.66,168.69,242.13,173.72,241.79,179.58z"/>
				<path class="st12" d="M225.89,187c-0.06,0.33-0.12,0.69-0.18,1.06c0.71,3.7,6.24,5.31,6.24,5.31l-0.82-4.91
					c0,0,0.67-0.57,0.48-1.14C229.43,186.63,226.67,186.02,225.89,187z"/>
				<path class="st9" d="M241.79,179.58c-0.35,5.86-5.37,10.32-11.23,9.98c-5.86-0.35-10.32-5.37-9.98-11.23
					c0.35-5.86,5.37-10.32,11.23-9.98C237.66,168.69,242.13,173.72,241.79,179.58z"/>
				<polygon class="st9" points="205.01,223.91 206.2,252.34 210.36,252.76 213.06,227.18 				"/>
				<path class="st10" d="M218.67,221.54c-1.38-6.07-4.09-19.48-4.09-19.48l-1.16,13.34c1.34,3.96,2.49,7.59,2.44,9.69
					c-0.08,3.49-0.35,7.35-0.66,11.25l0,0.01C215.2,236.35,220.04,227.61,218.67,221.54z"/>
				<path class="st13" d="M211.12,197.17c0,0-3.32,1.27-5.2,11.48c-1.88,10.21-3.29,20.43,0.07,21.75c3.35,1.32,6.15,2.31,7.14-0.42
					c0.99-2.73,1.6-15.88,1.72-20.61C214.97,204.63,215.15,198.11,211.12,197.17z"/>
				<path class="st9" d="M264.13,233.27c0,0,1.8,0.66,3.1,2.08c1.07,1.16,1.65,2.15,2.12,2.84c1.04,1.54,1.91,4.88,1.28,5.3
					c-0.63,0.42-4.24-5.59-4.82-4.19c-0.58,1.4,0,2.69-0.74,2.71c-0.75,0.02-3.34-6.03-5.38-7.91
					C257.64,232.21,264.13,233.27,264.13,233.27z"/>
			</g>
			<path class="st14" d="M228.51,325.61c0,0,0.99-0.01,2.27-0.24l0,0l1.56-62.48L228.51,325.61z"/>
		</g>
		<g>
			<path class="st11" d="M222.5,291.86l-2.21-2.89l-23.25-13.46c-0.75-0.43-1.35-1.59-1.35-2.58l0.02-19.04l-1.34-1.75l1.26-0.73
				l0,0c0.24-0.16,0.56-0.15,0.91,0.05l26.35,15.26c0.75,0.43,1.35,1.59,1.35,2.58l-0.02,20.73c0,0.56-0.19,0.95-0.49,1.11l0,0
				L222.5,291.86z"/>
			<path class="st15" d="M206.42,280.94l-1.65-0.96l-9.07-15.75l0.01-10.34l-1.34-1.75l1.26-0.73l0,0c0.24-0.16,0.56-0.15,0.91,0.05
				l26.35,15.26c0.39,0.23,0.75,0.66,0.99,1.16L206.42,280.94z"/>
			<path class="st15" d="M194.96,252.92l-0.59-0.77l1.26-0.73l0,0c0.24-0.16,0.56-0.15,0.91,0.05l0.46,0.27L194.96,252.92z"/>
			<path class="st11" d="M223.13,266.9c0.59,0.48,1.04,1.38,1.1,2.22l-2.58,1.49l-1.23-2.14L223.13,266.9z"/>
			<path class="st13" d="M221.63,267.46l-26.35-15.26c-0.75-0.43-1.35,0.02-1.35,1.02l-0.02,20.73c0,0.99,0.6,2.15,1.35,2.58
				l26.35,15.26c0.75,0.43,1.35-0.02,1.35-1.02l0.02-20.73C222.98,269.04,222.38,267.89,221.63,267.46z"/>
		</g>
		<path class="st9" d="M206.23,252.1c0,0-1.1,6.63-0.93,8.76c0.17,2.13,1.3,5.63,2.17,5.56c0.86-0.07,0.03-8.54,1.54-7.7
			c1.52,0.84,1.68,2.29,2.36,1.78c0.69-0.51-1.2-7.75-0.69-10.89C211.18,246.46,206.23,252.1,206.23,252.1z"/>
		<path class="st12" d="M235.26,179.88c5.33,1.89,6.37,0.74,6.42,0.68c0.05-0.32,0.09-0.65,0.11-0.98c0.07-1.18-0.06-2.32-0.35-3.39
			l-13.82-1.87C227.61,174.32,229.79,177.94,235.26,179.88z"/>
		<path class="st7" d="M242.17,169c-1.26-1.08-5.79-6.4-13.9-5.14c-5.07,0.78-9.35,4.25-10.3,12.14
			c-0.64,5.32,1.31,10.56,4.91,14.43c0.2-0.09,0.4-0.17,0.58-0.29c2.03-1.34,2.25-2.07,2.25-2.08l0.45-4.03
			c-0.01-0.57-0.44-1.08-1.01-1.12c-0.44-0.03-0.98-0.24-1.49-0.91c-1.17-1.52-0.63-3.9,1.7-3.99c1.22-0.05,1.69-0.71,1.86-1.32
			c0.15-0.54,0.72-0.84,1.24-0.65c2.65,0.96,9.19,3.03,13.4,1.84C247.24,176.35,243.42,170.07,242.17,169z"/>
		<path class="st5" d="M236.12,184.68l3.25-0.89c0,0-1.55,2.44-3.82,3.06s-2.62-1.29-2.62-1.29L236.12,184.68z"/>
		<polygon class="st15" points="211.76,260.29 208.99,258.7 210.03,260.4 211.43,260.92 		"/>
	</g>
	<g>
		<g>
			<path class="st1" d="M286.24,347.66c0,0-3.49-1.76-5.64,0.86c-2.14,2.62-5.21,8.81-5.31,13c-0.09,4.18,3.31,3.9,5.34,2.91
				c2.02-0.99,7.94-9.57,8.3-11.25s-0.42-3.95-0.99-4.4C287.37,348.33,286.24,347.66,286.24,347.66z"/>
			<path class="st16" d="M287,346.81l0.16,3.62c0.03,0.77-0.35,1.5-1.02,1.88c-0.61,0.35-1.5,0.61-2.69,0.42
				c-2.63-0.42-2.87-1.17-3.05-4.79C280.21,344.32,287,346.81,287,346.81z"/>
			<g>
				<path class="st1" d="M273.46,340.7c0,0-3.49-1.76-5.64,0.86s-5.21,8.81-5.31,13c-0.09,4.18,3.31,3.9,5.33,2.91
					c2.02-0.99,7.94-9.57,8.3-11.25c0.36-1.68-0.42-3.95-0.99-4.4C274.58,341.38,273.46,340.7,273.46,340.7z"/>
				<path class="st16" d="M274.22,339.86l0.16,3.62c0.03,0.77-0.35,1.5-1.02,1.88c-0.61,0.35-1.5,0.61-2.69,0.42
					c-2.63-0.42-2.87-1.17-3.05-4.79C267.42,337.37,274.22,339.86,274.22,339.86z"/>
				<path class="st8" d="M305.38,273.43c-1.03-16.82-18.21,2.47-18.21,2.47l-11.76,11.53l-10.59,11.63
					c-2.07,2.27-3.03,5.34-2.63,8.38l4.28,32.62c0.21,1.61,1.59,2.8,3.21,2.79c0.46,0,0.98-0.05,1.59-0.14
					c3.82-0.6,3.54-4.23,3.54-4.23l-0.78-30.51l22.24-13.41C296.27,294.57,306.42,290.25,305.38,273.43z"/>
			</g>
			<path class="st8" d="M318.17,279.84c-1.03-16.82-18.21,2.47-18.21,2.47l-11.76,11.53l-10.59,11.63
				c-2.07,2.27-3.03,5.34-2.63,8.38l4.28,32.62c0.21,1.61,1.59,2.8,3.21,2.79c0.46,0,0.98-0.05,1.59-0.14
				c3.82-0.6,3.54-4.23,3.54-4.23l-0.78-30.51l22.24-13.41C309.05,300.98,319.2,296.65,318.17,279.84z"/>
			<path class="st11" d="M308,225.85c13.03,5.4,12.76,13.1,12.76,13.1s-2.55,28.23-1.68,47.08c0.36,7.88-41.87,8.48-35.57-12.54
				c7.43-24.79,4.64-44.86,8.12-47.89C295.11,222.57,304.63,224.45,308,225.85z"/>
			<path class="st9" d="M312.19,232.67c-0.68,2.64-4.15,4.04-7.74,3.11c-3.59-0.93-5.95-3.82-5.27-6.46
				c0.68-2.64,4.15-4.04,7.74-3.11C310.51,227.13,312.87,230.03,312.19,232.67z"/>
			<path class="st5" d="M306.65,236.69c-0.76,0-1.56-0.1-2.35-0.3c-3.92-1.01-6.48-4.25-5.72-7.22c0.38-1.48,1.5-2.65,3.15-3.32
				c1.58-0.64,3.48-0.72,5.35-0.24c3.92,1.01,6.49,4.25,5.72,7.22l0,0C312.19,235.2,309.64,236.69,306.65,236.69z M304.69,226.54
				c-0.89,0-1.74,0.15-2.5,0.46c-1.27,0.51-2.13,1.39-2.41,2.47c-0.59,2.31,1.57,4.87,4.82,5.71c3.25,0.84,6.39-0.36,6.98-2.67
				c0.59-2.31-1.57-4.87-4.83-5.71C306.07,226.63,305.37,226.54,304.69,226.54z"/>
			<path class="st9" d="M302.78,225.26c0,0,0.11,0.52-0.11,4.65c-0.07,1.3,4.47,2.51,5.65,1.34c1.17-1.17,0.7-2.4,0.99-6.81
				C309.58,220.02,302.78,225.26,302.78,225.26z"/>
			<path class="st12" d="M309.3,224.43c0,0-1.12,4.09-6.63,5.67l0.08-3.72L309.3,224.43z"/>
			<path class="st9" d="M312.79,214.03c1.39,5.36-1.84,10.83-7.2,12.22c-5.36,1.39-10.83-1.84-12.22-7.2
				c-1.39-5.36,1.84-10.83,7.2-12.22C305.94,205.44,311.41,208.67,312.79,214.03z"/>
			<path class="st12" d="M305.39,216.91c0,0-5.52,2.36-9.34,2.39c-3.82,0.03-2.98-3.17-2.98-3.17l11.35-1.64L305.39,216.91z"/>
			<path class="st17" d="M294.91,217.53c0,0,4.81-2.04,9.03-1.19c0.99,0.2,1.91,0.73,2.55,1.51c0.21,0.26,0.47,0.49,0.77,0.56
				c0.75,0.17,1.97-2.93,3.43-3s2.42,0.96,1.23,2.87c-1.19,1.91-0.79,4.04-0.24,4.35s6.37-4.15,1.23-14.32
				c-5.13-10.17-18.17-4.69-20.2-2.63c0,0-2.14,1.86-3.87,0.2C288.84,205.88,286.89,220.47,294.91,217.53z"/>
			<path class="st9" d="M313.46,259.57v7.63c0,0.87-0.37,1.71-1.01,2.3l-15.67,14.29l1.78,2.72l20.6-14.15
				c0.97-0.7,1.59-1.78,1.71-2.96l1.49-14.15L313.46,259.57z"/>
			<path class="st11" d="M319.66,235.13c0,0,4.75,7.15,6.52,25.97c0,0-8.12,2.63-12.73,1.14
				C308.85,260.74,319.66,235.13,319.66,235.13z"/>
			<path class="st7" d="M312.59,244.17c0,0-1.86,9.96-1.97,14.64c-0.03,1.29,0.76,2.45,1.97,2.89l0,0V244.17z"/>
		</g>
		<g>
			<path class="st1" d="M308.53,293.7l-3.46-0.46l-22.36-12.91c-0.72-0.41-1.97-0.36-2.8,0.12l-15.84,9.14l-2.09-0.28v2.08l0,0
				c-0.01,0.27,0.14,0.54,0.48,0.73l25.34,14.63c0.72,0.41,1.97,0.36,2.8-0.12l17.25-9.96c0.47-0.27,0.7-0.62,0.68-0.94l0,0V293.7z"
				/>
			<path class="st2" d="M291.73,285.54l-1.59-0.92h-17.46l-8.61,4.97l-2.09-0.28v2.08l0,0c-0.01,0.27,0.14,0.54,0.48,0.73
				l25.34,14.63c0.38,0.22,0.91,0.31,1.44,0.27L291.73,285.54z"/>
			<path class="st6" d="M262.91,289.44l-0.93-0.12v2.08l0,0c-0.01,0.27,0.14,0.54,0.48,0.73l0.45,0.26V289.44z"/>
			<path class="st3" d="M288.05,306.88c0.68,0.26,1.65,0.2,2.38-0.15v-3.55h-2.38V306.88z"/>
			<path class="st5" d="M287.79,304.68l-25.34-14.63c-0.72-0.41-0.63-1.14,0.2-1.61l17.25-9.96c0.83-0.48,2.08-0.53,2.8-0.12
				l25.34,14.63c0.72,0.41,0.63,1.14-0.2,1.61l-17.25,9.96C289.76,305.04,288.51,305.09,287.79,304.68z"/>
			<path class="st4" d="M287.37,302.46L266.3,290.3c-0.6-0.34-0.52-0.95,0.17-1.34l9.24-5.2c0.69-0.4,1.73-0.44,2.33-0.1
				l21.07,12.16c0.6,0.34,0.52,0.94-0.17,1.34l-9.24,5.2C289,302.76,287.96,302.8,287.37,302.46z"/>
		</g>
		<path class="st9" d="M280.89,278l-0.26,1.75c-0.22,1.49-0.18,3.01,0.11,4.48l0.31,1.54c0.18,0.87,0.86,1.54,1.74,1.7l0,0
			c0.68,0.12,1.32-0.35,1.4-1.04l0.42-3.74c0,0,0.96,1.25,1.42,1.25c0.46,0-0.52-3.74-1.56-5.86
			C283.42,275.96,280.89,278,280.89,278z"/>
		<path class="st9" d="M289.48,250.21l-2.72,5.38c-0.64,1.27-1.02,2.66-1.11,4.08l-1.18,18.4l-3.58-0.08l-1.62-20.67
			c-0.05-0.64-0.02-1.28,0.09-1.91l1.85-10.48L289.48,250.21z"/>
		<g>
			<path class="st1" d="M286.94,306.08l-2.12-2.77l-22.34-12.93c-0.72-0.41-1.3-1.53-1.29-2.48l0.02-18.29l-1.28-1.68l1.21-0.7l0,0
				c0.23-0.15,0.54-0.15,0.88,0.05l25.32,14.66c0.72,0.41,1.3,1.53,1.29,2.48l-0.02,19.92c0,0.54-0.18,0.91-0.47,1.06l0,0
				L286.94,306.08z"/>
			<path class="st2" d="M271.49,295.59l-1.59-0.92l-8.71-15.13l0.01-9.94l-1.28-1.68l1.21-0.7l0,0c0.23-0.15,0.54-0.15,0.88,0.05
				l25.32,14.66c0.38,0.22,0.72,0.63,0.95,1.12L271.49,295.59z"/>
			<path class="st6" d="M260.48,268.67l-0.57-0.74l1.21-0.7l0,0c0.23-0.15,0.54-0.15,0.88,0.05l0.45,0.26L260.48,268.67z"/>
			<path class="st3" d="M287.54,282.1c0.56,0.46,1,1.33,1.06,2.13l-2.47,1.43l-1.19-2.06L287.54,282.1z"/>
			<path class="st5" d="M286.11,282.64l-25.32-14.66c-0.72-0.41-1.3,0.02-1.3,0.98l-0.02,19.92c0,0.96,0.58,2.07,1.29,2.48
				l25.32,14.66c0.72,0.41,1.3-0.02,1.3-0.98l0.02-19.92C287.4,284.16,286.82,283.05,286.11,282.64z"/>
		</g>
		<path class="st9" d="M298.56,286.5l-0.41,0.84c-0.47,0.97-1.2,1.78-2.12,2.35l-2.51,1.55c-0.78,0.48-1.77,0.52-2.57,0.06
			c-0.03-0.02-0.06-0.03-0.09-0.05c-0.8-0.5-0.87-1.65-0.21-2.32l2.63-2.7c0,0-1.48,1.13-1.89,0.68c-0.3-0.33,1.43-1.96,2.76-2.02
			s2.62-1.1,2.62-1.1L298.56,286.5z"/>
		<path class="st11" d="M291.89,225.56c0,0-9.63,10.48-13.52,20.1c0,0,3.29,5.94,11.36,8.26
			C297.8,256.25,291.89,225.56,291.89,225.56z"/>
		<path class="st7" d="M287.92,253.3l1.56-15.08l-3.68,14.13C286.46,252.69,287.17,253.01,287.92,253.3z"/>
		<path class="st5" d="M299.11,223.44l-2.59-0.71c0,0,1.24,1.94,3.04,2.44c1.8,0.5,2.08-1.03,2.08-1.03L299.11,223.44z"/>
	</g>
	<g>
		<g>
			<path class="st0" d="M129.05,360.04l-23.34-13.58c-1.97-1.14-1.72-3.12,0.55-4.44l22.25-12.96c2.27-1.31,5.72-1.46,7.69-0.32
				l23.34,13.58c1.97,1.14,1.72,3.12-0.55,4.44l-22.25,12.96C134.46,361.03,131.02,361.17,129.05,360.04z"/>
			<path class="st1" d="M168.04,316.86L168.04,316.86V311l-31.15-0.02l0.21-0.01c-2.47-1.43-6.79-1.25-9.64,0.4l0.92-0.39
				l-31.17-0.02v6.26c-0.07,0.97,0.47,1.9,1.66,2.58l29.28,17.03c2.47,1.43,6.79,1.25,9.64-0.4l27.9-16.26
				C167.33,319.24,168.13,318.01,168.04,316.86z"/>
			<path class="st2" d="M132.63,310.02c-1.81,0.04-3.68,0.5-5.17,1.36l0.92-0.39l-31.17-0.02v6.26c-0.07,0.97,0.47,1.9,1.66,2.58
				l29.28,17.03c1.19,0.69,2.8,1,4.47,0.96L132.63,310.02z"/>
			<path class="st0" d="M100.74,310.97l-3.53,0v6.26c-0.07,0.97,0.47,1.9,1.66,2.58l1.87,1.08V310.97z"/>
			<path class="st3" d="M128.76,337.15c2.13,0.91,5.21,0.86,7.71-0.09v-8.19h-7.71V337.15z"/>
			<path class="st4" d="M128.14,330.64l-29.28-17.03c-2.47-1.43-2.16-3.92,0.69-5.57l27.9-16.26c2.85-1.65,7.17-1.83,9.64-0.4
				l29.28,17.03c2.47,1.43,2.16,3.92-0.69,5.57l-27.9,16.26C134.93,331.89,130.61,332.07,128.14,330.64z"/>
		</g>
		<g>
			<path class="st5" d="M133.82,307.77l-8.61-5.01c-1.15-0.66-1.15-1.74,0-2.41c1.15-0.66,3.02-0.66,4.17,0l8.61,5.01
				c1.15,0.66,1.15,1.74,0,2.41C136.84,308.44,134.97,308.44,133.82,307.77z"/>
		</g>
		<g>
			<path class="st5" d="M146.33,315.09l-5.23-3.08c-1.15-0.66-1.15-1.74,0-2.41c1.15-0.66,3.02-0.66,4.17,0l5.23,3.08
				c1.15,0.66,1.15,1.74,0,2.41C149.35,315.75,147.48,315.75,146.33,315.09z"/>
		</g>
		<g>
			<path class="st5" d="M121.75,310.85l-5.23-3.08c-1.15-0.66-1.15-1.74,0-2.41c1.15-0.66,3.02-0.66,4.17,0l5.23,3.08
				c1.15,0.66,1.15,1.74,0,2.41C124.77,311.51,122.9,311.51,121.75,310.85z"/>
		</g>
	</g>
	<g>
		<path class="st4" d="M373.42,82.93l-10.34-5.97c-0.96-0.55-1.52-1.92-1.26-3.06l0,0c0.26-1.14,1.25-1.61,2.21-1.06l10.34,5.97
			c0.96,0.55,1.52,1.92,1.26,3.06l0,0C375.36,83.01,374.37,83.48,373.42,82.93z"/>
		<path class="st4" d="M398.04,97.14l-15.24-8.8c-0.96-0.55-1.52-1.92-1.26-3.06l0,0c0.26-1.14,1.25-1.61,2.21-1.06l15.24,8.8
			c0.96,0.55,1.52,1.92,1.26,3.06l0,0C399.99,97.22,399,97.69,398.04,97.14z"/>
		<path class="st4" d="M355.4,131.17l-10.34-5.97c-0.96-0.55-1.52-1.92-1.26-3.06l0,0c0.26-1.14,1.25-1.61,2.21-1.06l10.34,5.97
			c0.96,0.55,1.52,1.92,1.26,3.06l0,0C357.35,131.25,356.36,131.73,355.4,131.17z"/>
		<path class="st4" d="M377.35,143.85l-15.24-8.8c-0.96-0.55-1.52-1.92-1.26-3.06l0,0c0.26-1.14,1.25-1.61,2.21-1.06l15.24,8.8
			c0.96,0.55,1.52,1.92,1.26,3.06l0,0C379.29,143.93,378.3,144.4,377.35,143.85z"/>
		<path class="st4" d="M342.92,75.1l-6.46-3.73c-0.96-0.55-1.52-1.92-1.26-3.06l0,0c0.26-1.14,1.25-1.61,2.21-1.06l6.46,3.73
			c0.96,0.55,1.52,1.92,1.26,3.06l0,0C344.87,75.18,343.88,75.65,342.92,75.1z"/>
		<path class="st4" d="M362.82,96.36L343.1,84.97c-0.96-0.55-1.52-1.92-1.26-3.06l0,0c0.26-1.14,1.25-1.61,2.21-1.06l19.73,11.39
			c0.96,0.55,1.52,1.92,1.26,3.06l0,0C364.77,96.44,363.78,96.91,362.82,96.36z"/>
		<path class="st4" d="M345.57,105.95l-6.46-3.73c-0.96-0.55-1.52-1.92-1.26-3.06l0,0c0.26-1.14,1.25-1.61,2.21-1.06l6.46,3.73
			c0.96,0.55,1.52,1.92,1.26,3.06l0,0C347.52,106.03,346.53,106.5,345.57,105.95z"/>
		<path class="st4" d="M380.67,165.31l-17.25-9.96c-0.96-0.55-1.52-1.92-1.26-3.06l0,0c0.26-1.14,1.25-1.61,2.21-1.06l17.25,9.96
			c0.96,0.55,1.52,1.92,1.26,3.06l0,0C382.62,165.39,381.63,165.87,380.67,165.31z"/>
		<path class="st4" d="M339.28,121.87l-4.14-2.39c-0.96-0.55-1.52-1.92-1.26-3.06l0,0c0.26-1.14,1.25-1.61,2.21-1.06l4.14,2.39
			c0.96,0.55,1.52,1.92,1.26,3.06l0,0C341.23,121.95,340.24,122.42,339.28,121.87z"/>
		<path class="st4" d="M336.3,139.7l-5.15-2.97c-0.96-0.55-1.52-1.92-1.26-3.06l0,0c0.26-1.14,1.25-1.61,2.21-1.06l5.15,2.97
			c0.96,0.55,1.52,1.92,1.26,3.06l0,0C338.25,139.78,337.26,140.25,336.3,139.7z"/>
		<path class="st4" d="M356.32,151.26l-13.57-7.83c-0.96-0.55-1.52-1.92-1.26-3.06l0,0c0.26-1.14,1.25-1.61,2.21-1.06l13.57,7.83
			c0.96,0.55,1.52,1.92,1.26,3.06l0,0C358.27,151.34,357.28,151.81,356.32,151.26z"/>
		<path class="st4" d="M338.92,150.98l-9.76-5.63c-0.96-0.55-1.52-1.92-1.26-3.06l0,0c0.26-1.14,1.25-1.61,2.21-1.06l9.76,5.63
			c0.96,0.55,1.52,1.92,1.26,3.06l0,0C340.86,151.06,339.87,151.54,338.92,150.98z"/>
		<path class="st4" d="M395.47,173.9l-6.27-3.62c-0.96-0.55-1.52-1.92-1.26-3.06l0,0c0.26-1.14,1.25-1.61,2.21-1.06l6.27,3.62
			c0.96,0.55,1.52,1.92,1.26,3.06l0,0C397.41,173.98,396.42,174.45,395.47,173.9z"/>
		<path class="st4" d="M369.59,119.82l-17.25-9.96c-0.96-0.55-1.52-1.92-1.26-3.06l0,0c0.26-1.14,1.25-1.61,2.21-1.06l17.25,9.96
			c0.96,0.55,1.52,1.92,1.26,3.06l0,0C371.54,119.9,370.55,120.37,369.59,119.82z"/>
		<path class="st4" d="M371.16,110.95L341.1,93.6c-0.96-0.55-1.52-1.92-1.26-3.06l0,0c0.26-1.14,1.25-1.61,2.21-1.06l30.06,17.35
			c0.96,0.55,1.52,1.92,1.26,3.06l0,0C373.11,111.03,372.12,111.5,371.16,110.95z"/>
		<path class="st4" d="M354.37,120.8l-17.25-9.96c-0.96-0.55-1.52-1.92-1.26-3.06l0,0c0.26-1.14,1.25-1.61,2.21-1.06l17.25,9.96
			c0.96,0.55,1.52,1.92,1.26,3.06l0,0C356.32,120.89,355.33,121.36,354.37,120.8z"/>
		<path class="st4" d="M382.67,127.37l-6.27-3.62c-0.96-0.55-1.52-1.92-1.26-3.06l0,0c0.26-1.14,1.25-1.61,2.21-1.06l6.27,3.62
			c0.96,0.55,1.52,1.92,1.26,3.06l0,0C384.62,127.45,383.63,127.92,382.67,127.37z"/>
		<path class="st4" d="M444.52,123.98l-37.11-21.42c-0.96-0.55-1.52-1.92-1.26-3.06l0,0c0.26-1.14,1.25-1.61,2.21-1.06l37.11,21.42
			c0.96,0.55,1.52,1.92,1.26,3.06l0,0C446.47,124.06,445.48,124.53,444.52,123.98z"/>
		<path class="st4" d="M353.87,140.07l-20.73-11.97c-0.96-0.55-1.52-1.92-1.26-3.06l0,0c0.26-1.14,1.25-1.61,2.21-1.06l20.73,11.97
			c0.96,0.55,1.52,1.92,1.26,3.06l0,0C355.82,140.15,354.83,140.62,353.87,140.07z"/>
		<path class="st4" d="M353.7,71.54l-15.24-8.8c-0.96-0.55-1.52-1.92-1.26-3.06l0,0c0.26-1.14,1.25-1.61,2.21-1.06l15.24,8.8
			c0.96,0.55,1.52,1.92,1.26,3.06l0,0C355.65,71.62,354.66,72.1,353.7,71.54z"/>
		<path class="st4" d="M336.2,159.19L318.55,149c-0.96-0.55-1.52-1.92-1.26-3.06v0c0.26-1.14,1.25-1.61,2.21-1.06l17.65,10.19
			c0.96,0.55,1.52,1.92,1.26,3.06l0,0C338.15,159.27,337.16,159.74,336.2,159.19z"/>
	</g>
	<g>
		<path class="st4" d="M454.7,225.3l-10.34-5.97c-0.96-0.55-1.52-1.92-1.26-3.06l0,0c0.26-1.14,1.25-1.61,2.21-1.06l10.34,5.97
			c0.96,0.55,1.52,1.92,1.26,3.06l0,0C456.65,225.38,455.66,225.86,454.7,225.3z"/>
		<path class="st4" d="M462.13,190.49L442.4,179.1c-0.96-0.55-1.52-1.92-1.26-3.06l0,0c0.26-1.14,1.25-1.61,2.21-1.06l19.73,11.39
			c0.96,0.55,1.52,1.92,1.26,3.06l0,0C464.08,190.57,463.09,191.04,462.13,190.49z"/>
		<path class="st4" d="M444.87,200.08l-6.46-3.73c-0.96-0.55-1.52-1.92-1.26-3.06l0,0c0.26-1.14,1.25-1.61,2.21-1.06l6.46,3.73
			c0.96,0.55,1.52,1.92,1.26,3.06l0,0C446.82,200.16,445.83,200.63,444.87,200.08z"/>
		<path class="st4" d="M438.58,216l-4.14-2.39c-0.96-0.55-1.52-1.92-1.26-3.06l0,0c0.26-1.14,1.25-1.61,2.21-1.06l4.14,2.39
			c0.96,0.55,1.52,1.92,1.26,3.06l0,0C440.53,216.08,439.54,216.55,438.58,216z"/>
		<path class="st4" d="M468.89,213.95l-17.25-9.96c-0.96-0.55-1.52-1.92-1.26-3.06l0,0c0.26-1.14,1.25-1.61,2.21-1.06l17.25,9.96
			c0.96,0.55,1.52,1.92,1.26,3.06l0,0C470.84,214.03,469.85,214.5,468.89,213.95z"/>
		<path class="st4" d="M470.47,205.08l-30.06-17.35c-0.96-0.55-1.52-1.92-1.26-3.06l0,0c0.26-1.14,1.25-1.61,2.21-1.06l30.06,17.35
			c0.96,0.55,1.52,1.92,1.26,3.06l0,0C472.41,205.16,471.42,205.63,470.47,205.08z"/>
		<path class="st4" d="M453.67,214.93l-17.25-9.96c-0.96-0.55-1.52-1.92-1.26-3.06l0,0c0.26-1.14,1.25-1.61,2.21-1.06l17.25,9.96
			c0.96,0.55,1.52,1.92,1.26,3.06l0,0C455.62,215.02,454.63,215.49,453.67,214.93z"/>
		<path class="st4" d="M453.17,234.2l-20.73-11.97c-0.96-0.55-1.52-1.92-1.26-3.06l0,0c0.26-1.14,1.25-1.61,2.21-1.06l20.73,11.97
			c0.96,0.55,1.52,1.92,1.26,3.06l0,0C455.12,234.28,454.13,234.75,453.17,234.2z"/>
	</g>
	<g>
		<g>
			<path class="st0" d="M412.46,413.21l-24.28-14.13c-2.05-1.18-1.79-3.25,0.57-4.62l23.14-13.48c2.37-1.37,5.95-1.51,7.99-0.33
				l24.28,14.13c2.05,1.18,1.79,3.25-0.57,4.62l-23.14,13.48C418.09,414.25,414.51,414.39,412.46,413.21z"/>
			<path class="st18" d="M451.59,369.41L451.59,369.41v-5.86l-31.15-0.02l0.21-0.01c-2.47-1.43-6.79-1.25-9.64,0.4l0.92-0.39
				l-31.17-0.02v6.26c-0.07,0.97,0.47,1.9,1.66,2.58l29.28,17.03c2.47,1.43,6.79,1.25,9.64-0.4l27.9-16.26
				C450.88,371.79,451.68,370.56,451.59,369.41z"/>
			<path class="st11" d="M416.18,362.57c-1.81,0.04-3.68,0.5-5.17,1.36l0.92-0.39l-31.17-0.02v6.26c-0.07,0.97,0.47,1.9,1.66,2.58
				l29.28,17.03c1.19,0.69,2.8,1,4.47,0.96L416.18,362.57z"/>
			<path class="st13" d="M384.29,363.52l-3.53,0v6.26c-0.07,0.97,0.47,1.9,1.66,2.58l1.87,1.08V363.52z"/>
			<path class="st19" d="M412.31,389.7c2.13,0.91,5.21,0.86,7.71-0.09v-8.19h-7.71V389.7z"/>
			<path class="st10" d="M411.69,383.19l-29.28-17.03c-2.47-1.43-2.16-3.92,0.69-5.57l27.9-16.26c2.85-1.65,7.17-1.83,9.64-0.4
				l29.28,17.03c2.47,1.43,2.16,3.92-0.69,5.57l-27.9,16.26C418.48,384.43,414.16,384.61,411.69,383.19z"/>
		</g>
		<g>
			<path class="st13" d="M417.15,361.21l-8.61-5.01c-1.15-0.66-1.15-1.74,0-2.41c1.15-0.66,3.02-0.66,4.17,0l8.61,5.01
				c1.15,0.66,1.15,1.74,0,2.41C420.16,361.88,418.3,361.88,417.15,361.21z"/>
		</g>
		<g>
			<path class="st13" d="M429.66,368.53l-5.23-3.08c-1.15-0.66-1.15-1.74,0-2.41c1.15-0.66,3.02-0.66,4.17,0l5.23,3.08
				c1.15,0.66,1.15,1.74,0,2.41C432.68,369.19,430.81,369.19,429.66,368.53z"/>
		</g>
		<g>
			<path class="st13" d="M405.08,364.29l-5.23-3.08c-1.15-0.66-1.15-1.74,0-2.41c1.15-0.66,3.02-0.66,4.17,0l5.23,3.08
				c1.15,0.66,1.15,1.74,0,2.41C408.1,364.95,406.23,364.95,405.08,364.29z"/>
		</g>
	</g>
</g>
</svg>
