<?xml version="1.0" encoding="UTF-8"?>
<svg width="402px" height="106px" viewBox="0 0 402 106" version="1.1" xmlns="http://www.w3.org/2000/svg" xmlns:xlink="http://www.w3.org/1999/xlink">
    <!-- Generator: Sketch 55.2 (78181) - https://sketchapp.com -->
    <title>Logo_color</title>
    <desc>Created with Sketch.</desc>
    <g id="Logo_color" stroke="none" stroke-width="1" fill="none" fill-rule="evenodd">
        <path d="M68.8923902,43.5 C71.5352367,43.5 73.849702,43.8501768 75.8347118,44.5617706 C77.8117809,45.2705178 79.7903026,46.425206 81.7317222,47.9850158 C82.3205072,48.424305 82.7530802,48.9218629 82.9991961,49.5033443 C83.2131324,50.008797 83.3136105,50.571043 83.3136105,51.1835206 C83.3136105,52.2574296 82.8967626,53.2011774 82.1023389,53.9097103 C81.3560751,54.5752903 80.4547909,54.923221 79.4642977,54.923221 C78.493419,54.923221 77.5917773,54.5900694 76.7803069,53.933615 C75.5608193,52.8980102 74.3934381,52.1649383 73.2842265,51.7263935 C72.2074792,51.3006839 70.7408485,51.076779 68.8923902,51.076779 C66.6267729,51.076779 64.5604311,51.664088 62.6618102,52.8463488 C60.7451177,54.0398627 59.2272164,55.6587535 58.0936482,57.7236986 C56.9598654,59.7890348 56.3944016,62.0318058 56.3944016,64.4756554 C56.3944016,66.9515625 56.9596882,69.2009339 58.0914709,71.2480047 C59.2249284,73.2981046 60.7434849,74.9104314 62.6618102,76.1049621 C64.5604311,77.2872229 66.6267729,77.8745318 68.8923902,77.8745318 C71.6891093,77.8745318 74.3800949,76.9143135 77.0360788,74.9334746 C77.8283071,74.3771668 78.6586977,74.076779 79.5132417,74.076779 C80.5456264,74.076779 81.4584667,74.465959 82.1529624,75.2121084 C82.8328655,75.9425799 83.1667784,76.8859543 83.1667784,77.9625468 C83.1667784,79.0523693 82.740739,80.032455 81.9415618,80.8274704 L81.8216875,80.9345709 C78.0323078,83.9712304 73.7046156,85.5 68.8923902,85.5 C65.1334156,85.5 61.6783922,84.5682217 58.5561209,82.7081242 C55.4405236,80.8520026 52.977935,78.3056524 51.1858524,75.0897107 C49.3955825,71.8770219 48.5,68.3308161 48.5,64.4756554 C48.5,60.6514797 49.396339,57.1285039 51.1875503,53.9315953 C52.9787869,50.7346415 55.4389854,48.1907625 58.5507953,46.3194081 C61.6741543,44.4411083 65.1311601,43.5 68.8923902,43.5 Z M86.8231646,47.9213483 C86.8231646,46.8189531 87.2021078,45.849602 87.9504932,45.1051139 C88.6973339,44.3621623 89.6673677,43.9868914 90.7703654,43.9868914 C91.8733631,43.9868914 92.8433969,44.3621623 93.5902376,45.1051139 C94.338623,45.849602 94.7175662,46.8189531 94.7175662,47.9213483 L94.7175662,74.505618 C94.7175662,75.4565071 94.8861617,76.1872764 95.1967277,76.7169028 C95.4007169,77.0647775 95.5204664,77.1441948 95.664767,77.1441948 L96.8883674,77.1441948 C97.9590982,77.1441948 98.8974073,77.5462846 99.5953586,78.3239192 C100.261723,79.066361 100.590848,80.009305 100.590848,81.0786517 C100.590848,82.2814553 100.045067,83.3101819 99.047699,84.0412576 C98.152035,84.6977837 97.0426206,85.0131086 95.762655,85.0131086 L95.664767,85.0131086 C93.9641774,85.0131086 92.4063434,84.543193 91.0301694,83.6106807 C89.667316,82.6871945 88.6158894,81.3968621 87.8849111,79.7702939 C87.175,78.1906042 86.8231646,76.4313775 86.8231646,74.505618 L86.8231646,47.9213483 Z M116.123366,55.1853933 C118.95351,55.1853933 121.516462,55.8250471 123.786856,57.1079154 C126.063406,58.3942617 127.858224,60.1888428 129.150617,62.4704411 C130.440638,64.7478537 131.08297,67.3397999 131.08297,70.2209738 C131.08297,73.0672345 130.449964,75.6400483 129.179545,77.9148936 C127.90328,80.200209 126.114817,81.9975988 123.8358,83.285343 C121.564594,84.5686704 118.985381,85.2078652 116.123366,85.2078652 C113.26267,85.2078652 110.676928,84.5692928 108.390911,83.2878486 C106.093985,82.0002892 104.295571,80.2021126 103.018242,77.9148936 C101.747823,75.6400483 101.114817,73.0672345 101.114817,70.2209738 C101.114817,67.3429868 101.747376,64.7540103 103.018242,62.4783648 C104.295571,60.1911458 106.093985,58.3929692 108.390911,57.1054098 C110.676928,55.8239656 113.26267,55.1853933 116.123366,55.1853933 Z M116.123366,62.5674157 C114.721677,62.5674157 113.492288,62.8881992 112.406739,63.5281379 C111.323424,64.1667593 110.479953,65.0520857 109.858179,66.2084803 C109.228354,67.3798464 108.911331,68.709895 108.911331,70.2209738 C108.911331,71.7301596 109.227492,73.0497555 109.854686,74.2026654 C110.47617,75.3450784 111.320681,76.2248825 112.406739,76.8651206 C113.492288,77.5050592 114.721677,77.8258427 116.123366,77.8258427 C117.525054,77.8258427 118.754443,77.5050592 119.839993,76.8651206 C120.922315,76.2270844 121.756052,75.3516119 122.361055,74.2147794 C122.976113,73.0590527 123.286457,71.7349556 123.286457,70.2209738 C123.286457,68.7051232 122.975284,67.3706075 122.357663,66.1964134 C121.75232,65.0455586 120.919587,64.1645656 119.839993,63.5281379 C118.754443,62.8881992 117.525054,62.5674157 116.123366,62.5674157 Z M153.432181,84.2992889 C151.818245,84.9378525 150.0974,85.2565543 148.279584,85.2565543 C145.784345,85.2565543 143.515255,84.7104397 141.495136,83.6142946 C139.442468,82.500488 137.831094,80.8695463 136.682561,78.7502968 C135.544839,76.6509947 134.984076,74.1587008 134.984076,71.2921348 L134.984076,59.3146067 C134.984076,58.2086409 135.374188,57.2317505 136.135877,56.4740277 C136.896035,55.7178283 137.873707,55.3314607 138.980221,55.3314607 C140.086736,55.3314607 141.064408,55.7178283 141.824565,56.4740277 C142.586255,57.2317505 142.976366,58.2086409 142.976366,59.3146067 L142.976366,71.2921348 C142.976366,73.5381967 143.545015,75.1312256 144.638014,76.1685418 C145.763328,77.2365266 147.275841,77.7771536 149.258465,77.7771536 C150.405077,77.7771536 151.427206,77.5511966 152.342455,77.1025526 C153.238863,76.6631445 153.917228,76.0882879 154.402924,75.3697315 C154.870258,74.6783416 155.100067,73.9163001 155.100067,73.0449438 L155.100067,59.3146067 C155.100067,58.1735921 155.491675,57.1795199 156.270682,56.4312921 C157.030505,55.7014908 158.000276,55.3314607 159.096212,55.3314607 C160.227627,55.3314607 161.21428,55.7028448 161.965028,56.4496831 C162.71734,57.1980769 163.092357,58.1840324 163.092357,59.3146067 L163.092357,81.0299625 C163.092357,82.1252855 162.718725,83.0943231 161.98352,83.8518199 C161.232824,84.6252778 160.238006,85.0131086 159.096212,85.0131086 C157.989697,85.0131086 157.012026,84.6267409 156.251868,83.8705416 C156.028711,83.6485472 155.837449,83.4077406 155.678547,83.1503874 C154.981873,83.5994601 154.232612,83.9825935 153.432181,84.2992889 Z M189.50771,47.9700375 C189.50771,46.8290228 189.899318,45.8349506 190.678325,45.0867228 C191.438148,44.3569215 192.407919,43.9868914 193.503855,43.9868914 C194.63527,43.9868914 195.621924,44.3582755 196.372671,45.1051139 C197.124983,45.8535076 197.5,46.8394631 197.5,47.9700375 L197.5,70.1722846 C197.5,72.9634765 196.83732,75.5191174 195.512322,77.8122476 C194.190707,80.099521 192.387825,81.9111313 190.121593,83.2277183 C187.849461,84.5477334 185.313285,85.2078652 182.540396,85.2078652 C179.770169,85.2078652 177.221025,84.5490807 174.919179,83.2328624 C172.614683,81.915129 170.798317,80.0991416 169.490608,77.8045009 C168.184712,75.5130408 167.531847,72.9602823 167.531847,70.1722846 C167.531847,67.4004282 168.135856,64.8624524 169.346288,62.5799993 C170.563835,60.2841296 172.250743,58.469203 174.391151,57.1588883 C176.538811,55.8441336 178.939245,55.1853933 181.561515,55.1853933 C183.675104,55.1853933 185.658052,55.6237536 187.493814,56.5003308 C188.205921,56.8403622 188.877467,57.2335339 189.50771,57.6792779 L189.50771,47.9700375 Z M182.540396,77.8258427 C183.903264,77.8258427 185.111974,77.5003268 186.196396,76.8477344 C187.285326,76.1924295 188.132875,75.2961836 188.756639,74.136089 C189.387085,72.9635657 189.703486,71.6498124 189.703486,70.1722846 C189.703486,68.6966485 189.387964,67.3933668 188.760131,66.2392821 C188.136635,65.0931696 187.288035,64.2024593 186.196396,63.5455241 C185.111974,62.8929317 183.903264,62.5674157 182.540396,62.5674157 C181.177528,62.5674157 179.968817,62.8929317 178.884395,63.5455241 C177.789078,64.2046726 176.929718,65.0996301 176.289625,66.251217 C175.649646,67.4025986 175.328361,68.7014482 175.328361,70.1722846 C175.328361,71.6450366 175.650558,72.9543906 176.293217,74.1241973 C176.933528,75.289729 177.791801,76.1902243 178.884395,76.8477344 C179.968817,77.5003268 181.177528,77.8258427 182.540396,77.8258427 Z" id="Cloud" fill="#000000" fill-rule="nonzero"></path>
        <path d="M236.690241,47.9167503 C236.690241,47.3597431 236.877776,46.9010382 237.252852,46.5406219 C237.627928,46.1802055 238.076381,46 238.598226,46 C239.152685,46 239.609293,46.1802055 239.968061,46.5406219 C240.326829,46.9010382 240.50621,47.3597431 240.50621,47.9167503 L240.50621,82.4674022 C240.50621,82.9916442 240.326829,83.4421579 239.968061,83.8189569 C239.609293,84.1957558 239.152685,84.3841525 238.598226,84.3841525 C238.076381,84.3841525 237.627928,84.1957558 237.252852,83.8189569 C236.877776,83.4421579 236.690241,82.9916442 236.690241,82.4674022 L236.690241,66.6910732 L212.81597,66.6910732 L212.81597,82.4674022 C212.81597,82.9916442 212.636588,83.4421579 212.27782,83.8189569 C211.919052,84.1957558 211.462445,84.3841525 210.907985,84.3841525 C210.38614,84.3841525 209.937687,84.1957558 209.562611,83.8189569 C209.187535,83.4421579 209,82.9916442 209,82.4674022 L209,47.9167503 C209,47.3597431 209.187535,46.9010382 209.562611,46.5406219 C209.937687,46.1802055 210.38614,46 210.907985,46 C211.462445,46 211.919052,46.1802055 212.27782,46.5406219 C212.636588,46.9010382 212.81597,47.3597431 212.81597,47.9167503 L212.81597,63.2507523 L236.690241,63.2507523 L236.690241,47.9167503 Z M261.98327,57.2547643 C264.559878,57.2547643 266.875528,57.8445277 268.930292,59.0240722 C270.985055,60.2036167 272.607641,61.8418484 273.798099,63.9388164 C274.988557,66.0357845 275.583777,68.3784558 275.583777,70.9669007 C275.583777,73.5553456 274.996711,75.8898258 273.82256,77.9704112 C272.64841,80.0509967 271.025824,81.6810372 268.954753,82.8605817 C266.883682,84.0401263 264.559878,84.6298897 261.98327,84.6298897 C259.406662,84.6298897 257.082858,84.0401263 255.011787,82.8605817 C252.940716,81.6810372 251.31813,80.0509967 250.14398,77.9704112 C248.969829,75.8898258 248.382763,73.5553456 248.382763,70.9669007 C248.382763,68.3784558 248.969829,66.0357845 250.14398,63.9388164 C251.31813,61.8418484 252.940716,60.2036167 255.011787,59.0240722 C257.082858,57.8445277 259.406662,57.2547643 261.98327,57.2547643 Z M261.98327,60.6950853 C260.124199,60.6950853 258.436383,61.1374078 256.919772,62.0220662 C255.403161,62.9067246 254.212721,64.1272072 253.348416,65.6835507 C252.484111,67.2398941 252.051965,69.0009932 252.051965,70.9669007 C252.051965,72.9000431 252.484111,74.6447599 253.348416,76.2011033 C254.212721,77.7574468 255.403161,78.9779294 256.919772,79.8625878 C258.436383,80.7472461 260.124199,81.1895687 261.98327,81.1895687 C263.874957,81.1895687 265.570926,80.7472461 267.071229,79.8625878 C268.571533,78.9779294 269.745665,77.7574468 270.593663,76.2011033 C271.44166,74.6447599 271.865653,72.9000431 271.865653,70.9669007 C271.865653,69.0009932 271.44166,67.2398941 270.593663,65.6835507 C269.745665,64.1272072 268.571533,62.9067246 267.071229,62.0220662 C265.570926,61.1374078 263.874957,60.6950853 261.98327,60.6950853 Z M292.168568,57.2547643 C294.321177,57.2547643 296.196528,57.6233664 297.794677,58.3605817 C299.392826,59.0977971 300.68111,60.1216919 301.659569,61.4322969 C301.920491,61.8582435 302.050951,62.2350368 302.050951,62.5626881 C302.050951,63.1196952 301.790032,63.5620178 301.268188,63.889669 C301.039881,64.0534946 300.73004,64.1354062 300.338657,64.1354062 C299.653735,64.1354062 299.082977,63.8896715 298.626362,63.3981946 C297.028213,61.5633476 294.843022,60.6459378 292.070722,60.6459378 C290.276882,60.6459378 288.84183,61.0145399 287.765526,61.7517553 C286.689221,62.4889706 286.151077,63.4145715 286.151077,64.5285858 C286.151077,65.7081303 286.656607,66.6501135 287.667681,67.3545637 C288.678755,68.0590139 290.472568,68.6242038 293.049176,69.0501505 C296.539012,69.6399227 299.034044,70.5982882 300.534347,71.9252758 C302.034651,73.2522634 302.784791,74.8986863 302.784791,76.8645938 C302.784791,78.3717895 302.336337,79.7151395 301.439417,80.8946841 C300.542497,82.0742286 299.294981,82.9916383 297.696831,83.6469408 C296.098682,84.3022433 294.288561,84.6298897 292.266413,84.6298897 C290.244265,84.6298897 288.303685,84.285861 286.444613,83.5977934 C284.585542,82.9097257 283.085261,81.943169 281.943726,80.6980943 C281.617573,80.3049128 281.454499,79.9281195 281.454499,79.5677031 C281.454499,79.010696 281.715418,78.5192265 282.237262,78.0932798 C282.628646,77.7983937 283.036331,77.6509529 283.46033,77.6509529 C284.014789,77.6509529 284.487704,77.8803053 284.879087,78.3390171 C285.661854,79.2564406 286.697374,79.9608802 287.985678,80.4523571 C289.273982,80.943834 290.700879,81.1895687 292.266413,81.1895687 C294.549483,81.1895687 296.26176,80.7963931 297.403295,80.0100301 C298.54483,79.2236671 299.131897,78.1915811 299.164512,76.9137412 C299.164512,75.7341967 298.593753,74.7512577 297.452218,73.9648947 C296.310683,73.1785317 294.500562,72.5887683 292.0218,72.1955868 C288.825502,71.6713448 286.436468,70.7621262 284.854626,69.4679037 C283.272785,68.1736813 282.481876,66.60917 282.481876,64.774323 C282.481876,62.3824688 283.403244,60.531267 285.246008,59.220662 C287.088771,57.910057 289.396268,57.2547643 292.168568,57.2547643 Z M321.081876,80.5997994 C321.60372,80.5997994 322.027713,80.7800049 322.353866,81.1404213 C322.680019,81.5008376 322.843093,81.9595425 322.843093,82.5165496 C322.843093,83.0407917 322.647404,83.4831142 322.25602,83.8435306 C321.864637,84.203947 321.375415,84.3841525 320.78834,84.3841525 L319.760963,84.3841525 C318.032353,84.3841525 316.48315,83.9664034 315.113308,83.1308927 C313.743466,82.295382 312.675331,81.1650021 311.908872,79.7397192 C311.142413,78.3144362 310.759189,76.700778 310.759189,74.8986961 L310.759189,61.776329 L307.579214,61.776329 C307.05737,61.776329 306.641531,61.620697 306.331686,61.3094283 C306.02184,60.9981596 305.86692,60.6131751 305.86692,60.1544634 C305.86692,59.6629865 306.02184,59.2616197 306.331686,58.9503511 C306.641531,58.6390824 307.05737,58.4834504 307.579214,58.4834504 L310.759189,58.4834504 L310.759189,50.8655968 C310.759189,50.3085897 310.930417,49.8498848 311.272877,49.4894684 C311.615338,49.129052 312.063791,48.9488465 312.618251,48.9488465 C313.172711,48.9488465 313.629318,49.129052 313.988086,49.4894684 C314.346854,49.8498848 314.526236,50.3085897 314.526236,50.8655968 L314.526236,58.4834504 L320.054499,58.4834504 C320.576344,58.4834504 320.992183,58.6390824 321.302028,58.9503511 C321.611873,59.2616197 321.766793,59.6629865 321.766793,60.1544634 C321.766793,60.6131751 321.611873,60.9981596 321.302028,61.3094283 C320.992183,61.620697 320.576344,61.776329 320.054499,61.776329 L314.526236,61.776329 L314.526236,74.8986961 C314.526236,76.5697175 315.015458,77.9376409 315.993916,79.0025075 C316.972375,80.0673741 318.228045,80.5997994 319.760963,80.5997994 L321.081876,80.5997994 Z M329.741191,59.4172518 C329.741191,58.8602446 329.920573,58.4015397 330.279341,58.0411234 C330.638109,57.680707 331.094716,57.5005015 331.649176,57.5005015 C332.203636,57.5005015 332.65209,57.680707 332.99455,58.0411234 C333.337011,58.4015397 333.508238,58.8602446 333.508238,59.4172518 L333.508238,82.4674022 C333.508238,83.0244093 333.337011,83.4831142 332.99455,83.8435306 C332.65209,84.203947 332.203636,84.3841525 331.649176,84.3841525 C331.094716,84.3841525 330.638109,84.203947 330.279341,83.8435306 C329.920573,83.4831142 329.741191,83.0244093 329.741191,82.4674022 L329.741191,59.4172518 Z M331.649176,47.0320963 C332.366713,47.0320963 332.986394,47.277831 333.508238,47.7693079 C334.030083,48.2607848 334.291001,48.8996952 334.291001,49.6860582 C334.291001,50.4396561 334.030083,51.0785664 333.508238,51.6028084 C332.986394,52.1270504 332.350405,52.3891675 331.600253,52.3891675 C330.850102,52.3891675 330.222267,52.1270504 329.71673,51.6028084 C329.211193,51.0785664 328.958428,50.4396561 328.958428,49.6860582 C328.958428,48.8996952 329.219347,48.2607848 329.741191,47.7693079 C330.263036,47.277831 330.899025,47.0320963 331.649176,47.0320963 Z M355.768061,57.2056169 C358.083746,57.2056169 360.16294,57.6970864 362.005703,58.6800401 C363.848467,59.6629939 365.291672,61.0964466 366.335361,62.9804413 C367.37905,64.864436 367.900887,67.1170046 367.900887,69.7382146 L367.900887,82.5165496 C367.900887,83.0407917 367.721506,83.4831142 367.362738,83.8435306 C367.003969,84.203947 366.56367,84.3841525 366.041825,84.3841525 C365.487365,84.3841525 365.030758,84.203947 364.67199,83.8435306 C364.313222,83.4831142 364.13384,83.0407917 364.13384,82.5165496 L364.13384,69.7382146 C364.13384,66.8221185 363.326624,64.6023145 361.712167,63.0787362 C360.097711,61.5551579 357.985902,60.7933801 355.376679,60.7933801 C353.77853,60.7933801 352.335325,61.1046442 351.047022,61.7271815 C349.758718,62.3497189 348.739505,63.2097906 347.989354,64.3074223 C347.239202,65.405054 346.864132,66.6255366 346.864132,67.9689067 L346.864132,82.5165496 C346.864132,83.0735568 346.692904,83.5240705 346.350444,83.8681043 C346.007983,84.2121381 345.55953,84.3841525 345.00507,84.3841525 C344.45061,84.3841525 343.994003,84.2121381 343.635234,83.8681043 C343.276466,83.5240705 343.097085,83.0735568 343.097085,82.5165496 L343.097085,59.4172518 C343.097085,58.8602446 343.276466,58.4015397 343.635234,58.0411234 C343.994003,57.680707 344.45061,57.5005015 345.00507,57.5005015 C345.55953,57.5005015 346.007983,57.680707 346.350444,58.0411234 C346.692904,58.4015397 346.864132,58.8602446 346.864132,59.4172518 L346.864132,61.0882648 C347.940436,59.8759552 349.245028,58.9257808 350.777947,58.2377131 C352.310865,57.5496455 353.97422,57.2056169 355.768061,57.2056169 Z M388.399493,57.2547643 C391.008716,57.2547643 393.340674,57.8363365 395.395437,58.9994985 C397.4502,60.1626604 399.064633,61.7845098 400.238783,63.8650953 C401.412934,65.9456807 402,68.3129255 402,70.9669007 L402,80.9929789 C402,83.614189 401.421087,85.9896249 400.263245,88.1193581 C399.105402,90.2490912 397.499123,91.9282787 395.44436,93.1569709 C393.389597,94.3856631 391.073946,95 388.497338,95 C385.985961,95 383.751848,94.5249128 381.79493,93.5747242 C379.838013,92.6245355 378.190966,91.2975679 376.853739,89.5937813 C376.560201,89.2661301 376.413435,88.8893368 376.413435,88.4633902 C376.413435,87.9719133 376.641738,87.545973 377.098352,87.1855567 C377.424505,86.9562008 377.783268,86.8415246 378.174651,86.8415246 C378.468189,86.8415246 378.761722,86.915245 379.05526,87.0626881 C379.348797,87.2101311 379.577101,87.3985278 379.740177,87.6278837 C380.718636,88.8729584 381.957998,89.8395151 383.458302,90.5275827 C384.958605,91.2156504 386.654574,91.559679 388.546261,91.559679 C390.372717,91.559679 392.027918,91.1091653 393.511914,90.2081244 C394.995909,89.3070834 396.161888,88.045645 397.009886,86.4237713 C397.857883,84.8018976 398.281876,82.9425046 398.281876,80.8455366 L398.281876,78.6339017 C397.303417,80.5015139 395.917288,81.9677312 394.123447,83.0325978 C392.329607,84.0974644 390.291182,84.6298897 388.008112,84.6298897 C385.464119,84.6298897 383.189237,84.0483174 381.183397,82.8851555 C379.177557,81.7219935 377.612046,80.1001441 376.486819,78.0195587 C375.361591,75.9389732 374.798986,73.5881107 374.798986,70.9669007 C374.798986,68.3129255 375.386052,65.9456807 376.560203,63.8650953 C377.734353,61.7845098 379.356939,60.1626604 381.42801,58.9994985 C383.499081,57.8363365 385.822885,57.2547643 388.399493,57.2547643 Z M388.399493,81.1895687 C390.29118,81.1895687 391.987149,80.7554373 393.487452,79.8871615 C394.987756,79.0188857 396.161888,77.8065942 397.009886,76.2502508 C397.857883,74.6939073 398.281876,72.9328082 398.281876,70.9669007 C398.281876,69.0009932 397.857883,67.2398941 397.009886,65.6835507 C396.161888,64.1272072 394.987756,62.9067246 393.487452,62.0220662 C391.987149,61.1374078 390.29118,60.6950853 388.399493,60.6950853 C386.475191,60.6950853 384.762914,61.1374078 383.262611,62.0220662 C381.762308,62.9067246 380.588175,64.1272072 379.740177,65.6835507 C378.89218,67.2398941 378.468188,69.0009932 378.468188,70.9669007 C378.468188,72.9328082 378.89218,74.6939073 379.740177,76.2502508 C380.588175,77.8065942 381.762308,79.0188857 383.262611,79.8871615 C384.762914,80.7554373 386.475191,81.1895687 388.399493,81.1895687 Z" id="Hosting" fill="#000000" fill-rule="nonzero"></path>
        <path d="M171,98 C173.209139,98 175,99.790861 175,102 C175,104.209139 173.209139,106 171,106 L168,106 C165.790861,106 164,104.209139 164,102 C164,99.790861 165.790861,98 168,98 L171,98 Z M103.406752,0 C123.046624,0 138.925967,16.2894948 138.925967,36.3333333 C138.925967,37.856748 138.834105,39.3694979 138.651928,40.8655237 C138.384884,43.058463 136.390674,44.6197101 134.197735,44.3526666 C132.004795,44.0856231 130.443548,42.091413 130.710592,39.8984737 C130.853716,38.7231535 130.925967,37.5333441 130.925967,36.3333333 C130.925967,20.662758 118.582043,8 103.406752,8 C92.9080566,8 83.4565544,14.1089166 78.8093661,23.6130138 L76.039433,29.2778829 L72.0950778,24.3579913 C68.3565763,19.694866 62.8235205,16.9538462 56.8552976,16.9538462 C45.9649497,16.9538462 37.0946592,26.05325 37.0946592,37.3282051 C37.0946592,38.0317186 37.1291052,38.7302203 37.1974622,39.4221078 L37.6315087,43.8153846 L32.1248373,43.8153846 C18.8242089,43.8153846 8,54.9191752 8,68.6666667 L8,72.6461538 C8,86.3936453 18.8242089,97.4974359 32.1248373,97.4974359 L155,97.4974359 C157.209139,97.4974359 159,99.2882969 159,101.497436 C159,103.706575 157.209139,105.497436 155,105.497436 L32.1248373,105.497436 C14.3596282,105.497436 0,90.7669085 0,72.6461538 L0,68.6666667 C0,51.5772795 12.7715501,37.5031834 29.1265603,35.9564511 C29.8263451,20.9430051 41.9516079,8.95384615 56.8552976,8.95384615 C63.3795771,8.95384615 69.5331941,11.2707042 74.4085501,15.3429026 C80.9564073,5.88172029 91.662272,0 103.406752,0 Z" id="Shape" fill="#26C2F6" fill-rule="nonzero"></path>
    </g>
</svg>